<svg width="2071" height="550" viewBox="0 0 2071 550" fill="none" xmlns="http://www.w3.org/2000/svg">
<circle opacity="0.6" cx="660" cy="264" r="27" fill="white"/>
<circle opacity="0.5" cx="511" cy="261" r="24" fill="white"/>
<circle opacity="0.4" cx="345" cy="259" r="21" fill="white"/>
<circle opacity="0.3" cx="175" cy="277" r="18" fill="white"/>
<circle opacity="0.2" cx="16" cy="325" r="16" fill="white"/>
<circle opacity="0.7" cx="1340" cy="433" r="16" fill="white"/>
<circle opacity="0.6" cx="1452" cy="465" r="16" fill="white"/>
<circle opacity="0.5" cx="1604" cy="449" r="16" fill="white"/>
<circle opacity="0.4" cx="1774" cy="383" r="16" fill="white"/>
<circle opacity="0.3" cx="1922" cy="275" r="16" fill="white"/>
<circle opacity="0.2" cx="2055" cy="163" r="16" fill="white"/>
<g filter="url(#filter0_d_632_2)">
<path d="M911.155 317.577H928.619C932.185 317.577 934.911 318.336 936.795 319.854C939.184 321.575 940.413 324.358 940.48 328.204C940.48 331.41 939.454 334.109 937.401 336.302C935.315 338.663 932.185 339.878 928.013 339.945H911.155V317.577ZM900 381.393H911.155V349.864H925.388L940.581 381.393H953.855L936.795 348.65C946.15 345.04 950.894 338.225 951.029 328.204C950.827 321.389 948.387 316.143 943.71 312.466C939.841 309.227 934.844 307.607 928.72 307.607H900V381.393Z" fill="#F9F9F9"/>
<path d="M962.133 381.393H972.682V350.117C972.682 346.44 973.675 343.64 975.66 341.717C977.612 339.76 980.102 338.781 983.13 338.781C986.159 338.781 988.632 339.76 990.55 341.717C992.502 343.64 993.477 346.44 993.477 350.117V381.393H1004.03V346.474C1003.86 340.468 1001.99 335.914 998.424 332.81C994.823 329.74 990.853 328.204 986.512 328.204C980.893 328.204 976.35 330.279 972.884 334.429H972.682V328.862H962.133V381.393Z" fill="#F9F9F9"/>
<path d="M1018.61 381.393H1043.6C1049.12 381.393 1053.78 380.178 1057.58 377.749C1061.41 375.489 1064.41 372.621 1066.56 369.146C1067.37 367.83 1068.06 366.565 1068.63 365.35C1069.17 364.102 1069.57 362.685 1069.84 361.099C1070.42 357.962 1070.7 352.428 1070.7 344.5C1070.7 337.044 1070.52 331.798 1070.15 328.761C1069.68 325.725 1068.55 322.823 1066.77 320.057C1061.79 311.825 1054.32 307.675 1044.35 307.607H1018.61V381.393ZM1029.77 318.184H1043.09C1048.75 318.049 1053.12 320.124 1056.22 324.409C1057.73 326.13 1058.69 328.373 1059.09 331.14C1059.4 333.906 1059.55 338.495 1059.55 344.905C1059.55 351.484 1059.4 355.971 1059.09 358.366C1058.76 360.796 1057.97 362.803 1056.72 364.389C1053.89 368.673 1049.35 370.816 1043.09 370.816H1029.77V318.184Z" fill="#F9F9F9"/>
<path d="M1094.83 354.976L1105.48 322.739H1105.68L1116.33 354.976H1094.83ZM1125.21 381.393H1136.97L1110.22 307.607H1100.89L1074.13 381.393H1085.95L1091.6 364.895H1119.51L1125.21 381.393Z" fill="#F9F9F9"/>
<path d="M1140.46 344.5C1140.46 352.935 1140.71 358.636 1141.21 361.605C1141.48 363.191 1141.82 364.507 1142.22 365.553C1142.66 366.565 1143.15 367.628 1143.69 368.741C1145.47 372.148 1148.33 375.151 1152.27 377.749C1156.14 380.448 1160.97 381.865 1166.75 382C1172.61 381.865 1177.49 380.448 1181.39 377.749C1185.26 375.151 1188.05 372.148 1189.77 368.741C1191.01 366.953 1191.87 364.574 1192.34 361.605C1192.78 358.636 1193 352.935 1193 344.5C1193 335.931 1192.78 330.195 1192.34 327.294C1191.87 324.392 1191.01 322.047 1189.77 320.259C1188.05 316.852 1185.26 313.815 1181.39 311.15C1177.49 308.451 1172.61 307.067 1166.75 307C1160.97 307.067 1156.14 308.451 1152.27 311.15C1148.33 313.815 1145.47 316.852 1143.69 320.259C1142.58 322.047 1141.75 324.392 1141.21 327.294C1140.71 330.195 1140.46 335.931 1140.46 344.5ZM1151.66 344.5C1151.66 337.246 1151.93 332.304 1152.47 329.672C1152.94 327.175 1153.9 325.134 1155.35 323.549C1156.52 322.03 1158.07 320.765 1159.99 319.753C1161.87 318.775 1164.13 318.252 1166.75 318.184C1169.41 318.252 1171.72 318.775 1173.67 319.753C1175.52 320.765 1177 322.03 1178.11 323.549C1179.56 325.134 1180.55 327.175 1181.09 329.672C1181.59 332.304 1181.85 337.246 1181.85 344.5C1181.85 351.754 1181.59 356.663 1181.09 359.227C1180.55 361.791 1179.56 363.866 1178.11 365.451C1177 366.97 1175.52 368.201 1173.67 369.146C1171.72 370.259 1169.41 370.816 1166.75 370.816C1164.13 370.816 1161.87 370.259 1159.99 369.146C1158.07 368.201 1156.52 366.97 1155.35 365.451C1153.9 363.866 1152.94 361.791 1152.47 359.227C1151.93 356.663 1151.66 351.754 1151.66 344.5Z" fill="#F9F9F9"/>
</g>
<g filter="url(#filter1_d_632_2)">
<path fill-rule="evenodd" clip-rule="evenodd" d="M771 275C771 421.355 889.645 540 1036 540C1182.36 540 1301 421.355 1301 275C1301 128.645 1182.36 10 1036 10C889.645 10 771 128.645 771 275ZM800 267.5C800 401.981 909.019 511 1043.5 511C1177.98 511 1287 401.981 1287 267.5C1287 133.019 1177.98 24 1043.5 24C909.019 24 800 133.019 800 267.5Z" fill="#F9F9F9"/>
</g>
<circle opacity="0.7" cx="787" cy="258" r="32" fill="white"/>
<circle opacity="0.8" cx="886" cy="192" r="36" fill="white"/>
<circle opacity="0.9" cx="999" cy="140" r="48" fill="white"/>
<circle opacity="0.9" cx="1229" cy="251" r="32" fill="white"/>
<circle opacity="0.8" cx="1278" cy="357" r="24" fill="white"/>
<circle cx="1147" cy="151" r="56" fill="white"/>
<defs>
<filter id="filter0_d_632_2" x="890" y="297" width="313" height="95" filterUnits="userSpaceOnUse" color-interpolation-filters="sRGB">
<feFlood flood-opacity="0" result="BackgroundImageFix"/>
<feColorMatrix in="SourceAlpha" type="matrix" values="0 0 0 0 0 0 0 0 0 0 0 0 0 0 0 0 0 0 127 0" result="hardAlpha"/>
<feOffset/>
<feGaussianBlur stdDeviation="5"/>
<feComposite in2="hardAlpha" operator="out"/>
<feColorMatrix type="matrix" values="0 0 0 0 0.883425 0 0 0 0 0.841667 0 0 0 0 1 0 0 0 1 0"/>
<feBlend mode="normal" in2="BackgroundImageFix" result="effect1_dropShadow_632_2"/>
<feBlend mode="normal" in="SourceGraphic" in2="effect1_dropShadow_632_2" result="shape"/>
</filter>
<filter id="filter1_d_632_2" x="761" y="0" width="550" height="550" filterUnits="userSpaceOnUse" color-interpolation-filters="sRGB">
<feFlood flood-opacity="0" result="BackgroundImageFix"/>
<feColorMatrix in="SourceAlpha" type="matrix" values="0 0 0 0 0 0 0 0 0 0 0 0 0 0 0 0 0 0 127 0" result="hardAlpha"/>
<feOffset/>
<feGaussianBlur stdDeviation="5"/>
<feComposite in2="hardAlpha" operator="out"/>
<feColorMatrix type="matrix" values="0 0 0 0 0.883425 0 0 0 0 0.841667 0 0 0 0 1 0 0 0 1 0"/>
<feBlend mode="normal" in2="BackgroundImageFix" result="effect1_dropShadow_632_2"/>
<feBlend mode="normal" in="SourceGraphic" in2="effect1_dropShadow_632_2" result="shape"/>
</filter>
</defs>
</svg>
