<svg width="882" height="882" viewBox="0 0 882 882" fill="none" xmlns="http://www.w3.org/2000/svg">
<g opacity="0.6">
<circle cx="441" cy="441" r="436" stroke="white" stroke-width="10"/>
<mask id="path-2-inside-1_137_22" fill="white">
<path fill-rule="evenodd" clip-rule="evenodd" d="M387 828C406.33 828 422 812.33 422 793C422 773.67 406.33 758 387 758C367.67 758 352 773.67 352 793C352 812.33 367.67 828 387 828ZM387 817C400.255 817 411 806.255 411 793C411 779.745 400.255 769 387 769C373.745 769 363 779.745 363 793C363 806.255 373.745 817 387 817Z"/>
</mask>
<path fill-rule="evenodd" clip-rule="evenodd" d="M387 828C406.33 828 422 812.33 422 793C422 773.67 406.33 758 387 758C367.67 758 352 773.67 352 793C352 812.33 367.67 828 387 828ZM387 817C400.255 817 411 806.255 411 793C411 779.745 400.255 769 387 769C373.745 769 363 779.745 363 793C363 806.255 373.745 817 387 817Z" fill="white"/>
<path d="M412 793C412 806.807 400.807 818 387 818V838C411.853 838 432 817.853 432 793H412ZM387 768C400.807 768 412 779.193 412 793H432C432 768.147 411.853 748 387 748V768ZM362 793C362 779.193 373.193 768 387 768V748C362.147 748 342 768.147 342 793H362ZM387 818C373.193 818 362 806.807 362 793H342C342 817.853 362.147 838 387 838V818ZM401 793C401 800.732 394.732 807 387 807V827C405.778 827 421 811.778 421 793H401ZM387 779C394.732 779 401 785.268 401 793H421C421 774.222 405.778 759 387 759V779ZM373 793C373 785.268 379.268 779 387 779V759C368.222 759 353 774.222 353 793H373ZM387 807C379.268 807 373 800.732 373 793H353C353 811.778 368.222 827 387 827V807Z" fill="white" mask="url(#path-2-inside-1_137_22)"/>
<mask id="path-4-inside-2_137_22" fill="white">
<path fill-rule="evenodd" clip-rule="evenodd" d="M653 739C672.33 739 688 723.33 688 704C688 684.67 672.33 669 653 669C633.67 669 618 684.67 618 704C618 723.33 633.67 739 653 739ZM653 728C666.255 728 677 717.255 677 704C677 690.745 666.255 680 653 680C639.745 680 629 690.745 629 704C629 717.255 639.745 728 653 728Z"/>
</mask>
<path fill-rule="evenodd" clip-rule="evenodd" d="M653 739C672.33 739 688 723.33 688 704C688 684.67 672.33 669 653 669C633.67 669 618 684.67 618 704C618 723.33 633.67 739 653 739ZM653 728C666.255 728 677 717.255 677 704C677 690.745 666.255 680 653 680C639.745 680 629 690.745 629 704C629 717.255 639.745 728 653 728Z" fill="white"/>
<path d="M678 704C678 717.807 666.807 729 653 729V749C677.853 749 698 728.853 698 704H678ZM653 679C666.807 679 678 690.193 678 704H698C698 679.147 677.853 659 653 659V679ZM628 704C628 690.193 639.193 679 653 679V659C628.147 659 608 679.147 608 704H628ZM653 729C639.193 729 628 717.807 628 704H608C608 728.853 628.147 749 653 749V729ZM667 704C667 711.732 660.732 718 653 718V738C671.778 738 687 722.778 687 704H667ZM653 690C660.732 690 667 696.268 667 704H687C687 685.222 671.778 670 653 670V690ZM639 704C639 696.268 645.268 690 653 690V670C634.222 670 619 685.222 619 704H639ZM653 718C645.268 718 639 711.732 639 704H619C619 722.778 634.222 738 653 738V718Z" fill="white" mask="url(#path-4-inside-2_137_22)"/>
<mask id="path-6-inside-3_137_22" fill="white">
<path fill-rule="evenodd" clip-rule="evenodd" d="M153 717C172.33 717 188 701.33 188 682C188 662.67 172.33 647 153 647C133.67 647 118 662.67 118 682C118 701.33 133.67 717 153 717ZM153 706C166.255 706 177 695.255 177 682C177 668.745 166.255 658 153 658C139.745 658 129 668.745 129 682C129 695.255 139.745 706 153 706Z"/>
</mask>
<path fill-rule="evenodd" clip-rule="evenodd" d="M153 717C172.33 717 188 701.33 188 682C188 662.67 172.33 647 153 647C133.67 647 118 662.67 118 682C118 701.33 133.67 717 153 717ZM153 706C166.255 706 177 695.255 177 682C177 668.745 166.255 658 153 658C139.745 658 129 668.745 129 682C129 695.255 139.745 706 153 706Z" fill="white"/>
<path d="M178 682C178 695.807 166.807 707 153 707V727C177.853 727 198 706.853 198 682H178ZM153 657C166.807 657 178 668.193 178 682H198C198 657.147 177.853 637 153 637V657ZM128 682C128 668.193 139.193 657 153 657V637C128.147 637 108 657.147 108 682H128ZM153 707C139.193 707 128 695.807 128 682H108C108 706.853 128.147 727 153 727V707ZM167 682C167 689.732 160.732 696 153 696V716C171.778 716 187 700.778 187 682H167ZM153 668C160.732 668 167 674.268 167 682H187C187 663.222 171.778 648 153 648V668ZM139 682C139 674.268 145.268 668 153 668V648C134.222 648 119 663.222 119 682H139ZM153 696C145.268 696 139 689.732 139 682H119C119 700.778 134.222 716 153 716V696Z" fill="white" mask="url(#path-6-inside-3_137_22)"/>
<mask id="path-8-inside-4_137_22" fill="white">
<path fill-rule="evenodd" clip-rule="evenodd" d="M592 190C628.451 190 658 160.451 658 124C658 87.5492 628.451 58 592 58C555.549 58 526 87.5492 526 124C526 160.451 555.549 190 592 190ZM560 150C573.255 150 584 139.255 584 126C584 112.745 573.255 102 560 102C546.745 102 536 112.745 536 126C536 139.255 546.745 150 560 150ZM631 94C631 107.255 620.255 118 607 118C593.745 118 583 107.255 583 94C583 80.7452 593.745 70 607 70C620.255 70 631 80.7452 631 94ZM612 175C625.255 175 636 164.255 636 151C636 137.745 625.255 127 612 127C598.745 127 588 137.745 588 151C588 164.255 598.745 175 612 175Z"/>
</mask>
<path fill-rule="evenodd" clip-rule="evenodd" d="M592 190C628.451 190 658 160.451 658 124C658 87.5492 628.451 58 592 58C555.549 58 526 87.5492 526 124C526 160.451 555.549 190 592 190ZM560 150C573.255 150 584 139.255 584 126C584 112.745 573.255 102 560 102C546.745 102 536 112.745 536 126C536 139.255 546.745 150 560 150ZM631 94C631 107.255 620.255 118 607 118C593.745 118 583 107.255 583 94C583 80.7452 593.745 70 607 70C620.255 70 631 80.7452 631 94ZM612 175C625.255 175 636 164.255 636 151C636 137.745 625.255 127 612 127C598.745 127 588 137.745 588 151C588 164.255 598.745 175 612 175Z" fill="white"/>
<path d="M648 124C648 154.928 622.928 180 592 180V200C633.974 200 668 165.974 668 124H648ZM592 68C622.928 68 648 93.0721 648 124H668C668 82.0264 633.974 48 592 48V68ZM536 124C536 93.0721 561.072 68 592 68V48C550.026 48 516 82.0264 516 124H536ZM592 180C561.072 180 536 154.928 536 124H516C516 165.974 550.026 200 592 200V180ZM574 126C574 133.732 567.732 140 560 140V160C578.778 160 594 144.778 594 126H574ZM560 112C567.732 112 574 118.268 574 126H594C594 107.222 578.778 92 560 92V112ZM546 126C546 118.268 552.268 112 560 112V92C541.222 92 526 107.222 526 126H546ZM560 140C552.268 140 546 133.732 546 126H526C526 144.778 541.222 160 560 160V140ZM607 128C625.778 128 641 112.778 641 94H621C621 101.732 614.732 108 607 108V128ZM573 94C573 112.778 588.222 128 607 128V108C599.268 108 593 101.732 593 94H573ZM607 60C588.222 60 573 75.2223 573 94H593C593 86.268 599.268 80 607 80V60ZM641 94C641 75.2223 625.778 60 607 60V80C614.732 80 621 86.268 621 94H641ZM626 151C626 158.732 619.732 165 612 165V185C630.778 185 646 169.778 646 151H626ZM612 137C619.732 137 626 143.268 626 151H646C646 132.222 630.778 117 612 117V137ZM598 151C598 143.268 604.268 137 612 137V117C593.222 117 578 132.222 578 151H598ZM612 165C604.268 165 598 158.732 598 151H578C578 169.778 593.222 185 612 185V165Z" fill="white" mask="url(#path-8-inside-4_137_22)"/>
<mask id="path-10-inside-5_137_22" fill="white">
<path fill-rule="evenodd" clip-rule="evenodd" d="M190 570C190 609.212 158.212 641 119 641C79.7878 641 48 609.212 48 570C48 530.788 79.7878 499 119 499C158.212 499 190 530.788 190 570ZM129 534C129 547.255 118.255 558 105 558C91.7452 558 81 547.255 81 534C81 520.745 91.7452 510 105 510C118.255 510 129 520.745 129 534ZM154 580C167.255 580 178 569.255 178 556C178 542.745 167.255 532 154 532C140.745 532 130 542.745 130 556C130 569.255 140.745 580 154 580ZM109 584C109 597.255 98.2548 608 85 608C71.7452 608 61 597.255 61 584C61 570.745 71.7452 560 85 560C98.2548 560 109 570.745 109 584ZM134 630C147.255 630 158 619.255 158 606C158 592.745 147.255 582 134 582C120.745 582 110 592.745 110 606C110 619.255 120.745 630 134 630Z"/>
</mask>
<path fill-rule="evenodd" clip-rule="evenodd" d="M190 570C190 609.212 158.212 641 119 641C79.7878 641 48 609.212 48 570C48 530.788 79.7878 499 119 499C158.212 499 190 530.788 190 570ZM129 534C129 547.255 118.255 558 105 558C91.7452 558 81 547.255 81 534C81 520.745 91.7452 510 105 510C118.255 510 129 520.745 129 534ZM154 580C167.255 580 178 569.255 178 556C178 542.745 167.255 532 154 532C140.745 532 130 542.745 130 556C130 569.255 140.745 580 154 580ZM109 584C109 597.255 98.2548 608 85 608C71.7452 608 61 597.255 61 584C61 570.745 71.7452 560 85 560C98.2548 560 109 570.745 109 584ZM134 630C147.255 630 158 619.255 158 606C158 592.745 147.255 582 134 582C120.745 582 110 592.745 110 606C110 619.255 120.745 630 134 630Z" fill="white"/>
<path d="M119 651C163.735 651 200 614.735 200 570H180C180 603.689 152.689 631 119 631V651ZM38 570C38 614.735 74.2649 651 119 651V631C85.3106 631 58 603.689 58 570H38ZM119 489C74.2649 489 38 525.265 38 570H58C58 536.311 85.3106 509 119 509V489ZM200 570C200 525.265 163.735 489 119 489V509C152.689 509 180 536.311 180 570H200ZM105 568C123.778 568 139 552.778 139 534H119C119 541.732 112.732 548 105 548V568ZM71 534C71 552.778 86.2223 568 105 568V548C97.268 548 91 541.732 91 534H71ZM105 500C86.2223 500 71 515.222 71 534H91C91 526.268 97.268 520 105 520V500ZM139 534C139 515.222 123.778 500 105 500V520C112.732 520 119 526.268 119 534H139ZM168 556C168 563.732 161.732 570 154 570V590C172.778 590 188 574.778 188 556H168ZM154 542C161.732 542 168 548.268 168 556H188C188 537.222 172.778 522 154 522V542ZM140 556C140 548.268 146.268 542 154 542V522C135.222 522 120 537.222 120 556H140ZM154 570C146.268 570 140 563.732 140 556H120C120 574.778 135.222 590 154 590V570ZM85 618C103.778 618 119 602.778 119 584H99C99 591.732 92.732 598 85 598V618ZM51 584C51 602.778 66.2223 618 85 618V598C77.268 598 71 591.732 71 584H51ZM85 550C66.2223 550 51 565.222 51 584H71C71 576.268 77.268 570 85 570V550ZM119 584C119 565.222 103.778 550 85 550V570C92.732 570 99 576.268 99 584H119ZM148 606C148 613.732 141.732 620 134 620V640C152.778 640 168 624.778 168 606H148ZM134 592C141.732 592 148 598.268 148 606H168C168 587.222 152.778 572 134 572V592ZM120 606C120 598.268 126.268 592 134 592V572C115.222 572 100 587.222 100 606H120ZM134 620C126.268 620 120 613.732 120 606H100C100 624.778 115.222 640 134 640V620Z" fill="white" mask="url(#path-10-inside-5_137_22)"/>
<mask id="path-12-inside-6_137_22" fill="white">
<path fill-rule="evenodd" clip-rule="evenodd" d="M444 634C444 703.588 387.588 760 318 760C248.412 760 192 703.588 192 634C192 564.412 248.412 508 318 508C387.588 508 444 564.412 444 634ZM356 669C356 682.255 345.255 693 332 693C318.745 693 308 682.255 308 669C308 655.745 318.745 645 332 645C345.255 645 356 655.745 356 669ZM400 612C413.255 612 424 601.255 424 588C424 574.745 413.255 564 400 564C386.745 564 376 574.745 376 588C376 601.255 386.745 612 400 612ZM258 623C258 636.255 247.255 647 234 647C220.745 647 210 636.255 210 623C210 609.745 220.745 599 234 599C247.255 599 258 609.745 258 623ZM302 566C315.255 566 326 555.255 326 542C326 528.745 315.255 518 302 518C288.745 518 278 528.745 278 542C278 555.255 288.745 566 302 566ZM405 691C405 704.255 394.255 715 381 715C367.745 715 357 704.255 357 691C357 677.745 367.745 667 381 667C394.255 667 405 677.745 405 691ZM283 669C296.255 669 307 658.255 307 645C307 631.745 296.255 621 283 621C269.745 621 259 631.745 259 645C259 658.255 269.745 669 283 669ZM375 564C375 577.255 364.255 588 351 588C337.745 588 327 577.255 327 564C327 550.745 337.745 540 351 540C364.255 540 375 550.745 375 564ZM284 726C297.255 726 308 715.255 308 702C308 688.745 297.255 678 284 678C270.745 678 260 688.745 260 702C260 715.255 270.745 726 284 726ZM430 645C430 658.255 419.255 669 406 669C392.745 669 382 658.255 382 645C382 631.745 392.745 621 406 621C419.255 621 430 631.745 430 645ZM259 601C272.255 601 283 590.255 283 577C283 563.745 272.255 553 259 553C245.745 553 235 563.745 235 577C235 590.255 245.745 601 259 601ZM332 599C332 612.255 321.255 623 308 623C294.745 623 284 612.255 284 599C284 585.745 294.745 575 308 575C321.255 575 332 585.745 332 599ZM333 748C346.255 748 357 737.255 357 724C357 710.745 346.255 700 333 700C319.745 700 309 710.745 309 724C309 737.255 319.745 748 333 748ZM259 678C259 691.255 248.255 702 235 702C221.745 702 211 691.255 211 678C211 664.745 221.745 654 235 654C248.255 654 259 664.745 259 678ZM357 645C370.255 645 381 634.255 381 621C381 607.745 370.255 597 357 597C343.745 597 333 607.745 333 621C333 634.255 343.745 645 357 645Z"/>
</mask>
<path fill-rule="evenodd" clip-rule="evenodd" d="M444 634C444 703.588 387.588 760 318 760C248.412 760 192 703.588 192 634C192 564.412 248.412 508 318 508C387.588 508 444 564.412 444 634ZM356 669C356 682.255 345.255 693 332 693C318.745 693 308 682.255 308 669C308 655.745 318.745 645 332 645C345.255 645 356 655.745 356 669ZM400 612C413.255 612 424 601.255 424 588C424 574.745 413.255 564 400 564C386.745 564 376 574.745 376 588C376 601.255 386.745 612 400 612ZM258 623C258 636.255 247.255 647 234 647C220.745 647 210 636.255 210 623C210 609.745 220.745 599 234 599C247.255 599 258 609.745 258 623ZM302 566C315.255 566 326 555.255 326 542C326 528.745 315.255 518 302 518C288.745 518 278 528.745 278 542C278 555.255 288.745 566 302 566ZM405 691C405 704.255 394.255 715 381 715C367.745 715 357 704.255 357 691C357 677.745 367.745 667 381 667C394.255 667 405 677.745 405 691ZM283 669C296.255 669 307 658.255 307 645C307 631.745 296.255 621 283 621C269.745 621 259 631.745 259 645C259 658.255 269.745 669 283 669ZM375 564C375 577.255 364.255 588 351 588C337.745 588 327 577.255 327 564C327 550.745 337.745 540 351 540C364.255 540 375 550.745 375 564ZM284 726C297.255 726 308 715.255 308 702C308 688.745 297.255 678 284 678C270.745 678 260 688.745 260 702C260 715.255 270.745 726 284 726ZM430 645C430 658.255 419.255 669 406 669C392.745 669 382 658.255 382 645C382 631.745 392.745 621 406 621C419.255 621 430 631.745 430 645ZM259 601C272.255 601 283 590.255 283 577C283 563.745 272.255 553 259 553C245.745 553 235 563.745 235 577C235 590.255 245.745 601 259 601ZM332 599C332 612.255 321.255 623 308 623C294.745 623 284 612.255 284 599C284 585.745 294.745 575 308 575C321.255 575 332 585.745 332 599ZM333 748C346.255 748 357 737.255 357 724C357 710.745 346.255 700 333 700C319.745 700 309 710.745 309 724C309 737.255 319.745 748 333 748ZM259 678C259 691.255 248.255 702 235 702C221.745 702 211 691.255 211 678C211 664.745 221.745 654 235 654C248.255 654 259 664.745 259 678ZM357 645C370.255 645 381 634.255 381 621C381 607.745 370.255 597 357 597C343.745 597 333 607.745 333 621C333 634.255 343.745 645 357 645Z" fill="white"/>
<path d="M318 770C393.111 770 454 709.111 454 634H434C434 698.065 382.065 750 318 750V770ZM182 634C182 709.111 242.889 770 318 770V750C253.935 750 202 698.065 202 634H182ZM318 498C242.889 498 182 558.889 182 634H202C202 569.935 253.935 518 318 518V498ZM454 634C454 558.889 393.111 498 318 498V518C382.065 518 434 569.935 434 634H454ZM332 703C350.778 703 366 687.778 366 669H346C346 676.732 339.732 683 332 683V703ZM298 669C298 687.778 313.222 703 332 703V683C324.268 683 318 676.732 318 669H298ZM332 635C313.222 635 298 650.222 298 669H318C318 661.268 324.268 655 332 655V635ZM366 669C366 650.222 350.778 635 332 635V655C339.732 655 346 661.268 346 669H366ZM414 588C414 595.732 407.732 602 400 602V622C418.778 622 434 606.778 434 588H414ZM400 574C407.732 574 414 580.268 414 588H434C434 569.222 418.778 554 400 554V574ZM386 588C386 580.268 392.268 574 400 574V554C381.222 554 366 569.222 366 588H386ZM400 602C392.268 602 386 595.732 386 588H366C366 606.778 381.222 622 400 622V602ZM234 657C252.778 657 268 641.778 268 623H248C248 630.732 241.732 637 234 637V657ZM200 623C200 641.778 215.222 657 234 657V637C226.268 637 220 630.732 220 623H200ZM234 589C215.222 589 200 604.222 200 623H220C220 615.268 226.268 609 234 609V589ZM268 623C268 604.222 252.778 589 234 589V609C241.732 609 248 615.268 248 623H268ZM316 542C316 549.732 309.732 556 302 556V576C320.778 576 336 560.778 336 542H316ZM302 528C309.732 528 316 534.268 316 542H336C336 523.222 320.778 508 302 508V528ZM288 542C288 534.268 294.268 528 302 528V508C283.222 508 268 523.222 268 542H288ZM302 556C294.268 556 288 549.732 288 542H268C268 560.778 283.222 576 302 576V556ZM381 725C399.778 725 415 709.778 415 691H395C395 698.732 388.732 705 381 705V725ZM347 691C347 709.778 362.222 725 381 725V705C373.268 705 367 698.732 367 691H347ZM381 657C362.222 657 347 672.222 347 691H367C367 683.268 373.268 677 381 677V657ZM415 691C415 672.222 399.778 657 381 657V677C388.732 677 395 683.268 395 691H415ZM297 645C297 652.732 290.732 659 283 659V679C301.778 679 317 663.778 317 645H297ZM283 631C290.732 631 297 637.268 297 645H317C317 626.222 301.778 611 283 611V631ZM269 645C269 637.268 275.268 631 283 631V611C264.222 611 249 626.222 249 645H269ZM283 659C275.268 659 269 652.732 269 645H249C249 663.778 264.222 679 283 679V659ZM351 598C369.778 598 385 582.778 385 564H365C365 571.732 358.732 578 351 578V598ZM317 564C317 582.778 332.222 598 351 598V578C343.268 578 337 571.732 337 564H317ZM351 530C332.222 530 317 545.222 317 564H337C337 556.268 343.268 550 351 550V530ZM385 564C385 545.222 369.778 530 351 530V550C358.732 550 365 556.268 365 564H385ZM298 702C298 709.732 291.732 716 284 716V736C302.778 736 318 720.778 318 702H298ZM284 688C291.732 688 298 694.268 298 702H318C318 683.222 302.778 668 284 668V688ZM270 702C270 694.268 276.268 688 284 688V668C265.222 668 250 683.222 250 702H270ZM284 716C276.268 716 270 709.732 270 702H250C250 720.778 265.222 736 284 736V716ZM406 679C424.778 679 440 663.778 440 645H420C420 652.732 413.732 659 406 659V679ZM372 645C372 663.778 387.222 679 406 679V659C398.268 659 392 652.732 392 645H372ZM406 611C387.222 611 372 626.222 372 645H392C392 637.268 398.268 631 406 631V611ZM440 645C440 626.222 424.778 611 406 611V631C413.732 631 420 637.268 420 645H440ZM273 577C273 584.732 266.732 591 259 591V611C277.778 611 293 595.778 293 577H273ZM259 563C266.732 563 273 569.268 273 577H293C293 558.222 277.778 543 259 543V563ZM245 577C245 569.268 251.268 563 259 563V543C240.222 543 225 558.222 225 577H245ZM259 591C251.268 591 245 584.732 245 577H225C225 595.778 240.222 611 259 611V591ZM308 633C326.778 633 342 617.778 342 599H322C322 606.732 315.732 613 308 613V633ZM274 599C274 617.778 289.222 633 308 633V613C300.268 613 294 606.732 294 599H274ZM308 565C289.222 565 274 580.222 274 599H294C294 591.268 300.268 585 308 585V565ZM342 599C342 580.222 326.778 565 308 565V585C315.732 585 322 591.268 322 599H342ZM347 724C347 731.732 340.732 738 333 738V758C351.778 758 367 742.778 367 724H347ZM333 710C340.732 710 347 716.268 347 724H367C367 705.222 351.778 690 333 690V710ZM319 724C319 716.268 325.268 710 333 710V690C314.222 690 299 705.222 299 724H319ZM333 738C325.268 738 319 731.732 319 724H299C299 742.778 314.222 758 333 758V738ZM235 712C253.778 712 269 696.778 269 678H249C249 685.732 242.732 692 235 692V712ZM201 678C201 696.778 216.222 712 235 712V692C227.268 692 221 685.732 221 678H201ZM235 644C216.222 644 201 659.222 201 678H221C221 670.268 227.268 664 235 664V644ZM269 678C269 659.222 253.778 644 235 644V664C242.732 664 249 670.268 249 678H269ZM371 621C371 628.732 364.732 635 357 635V655C375.778 655 391 639.778 391 621H371ZM357 607C364.732 607 371 613.268 371 621H391C391 602.222 375.778 587 357 587V607ZM343 621C343 613.268 349.268 607 357 607V587C338.222 587 323 602.222 323 621H343ZM357 635C349.268 635 343 628.732 343 621H323C323 639.778 338.222 655 357 655V635Z" fill="white" mask="url(#path-12-inside-6_137_22)"/>
<mask id="path-14-inside-7_137_22" fill="white">
<path fill-rule="evenodd" clip-rule="evenodd" d="M391 342.5C391 435.008 316.008 510 223.5 510C130.992 510 56 435.008 56 342.5C56 249.992 130.992 175 223.5 175C316.008 175 391 249.992 391 342.5ZM260 380C260 393.255 249.255 404 236 404C222.745 404 212 393.255 212 380C212 366.745 222.745 356 236 356C249.255 356 260 366.745 260 380ZM304 323C317.255 323 328 312.255 328 299C328 285.745 317.255 275 304 275C290.745 275 280 285.745 280 299C280 312.255 290.745 323 304 323ZM350 251C350 264.255 339.255 275 326 275C312.745 275 302 264.255 302 251C302 237.745 312.745 227 326 227C339.255 227 350 237.745 350 251ZM224 227C237.255 227 248 216.255 248 203C248 189.745 237.255 179 224 179C210.745 179 200 189.745 200 203C200 216.255 210.745 227 224 227ZM378 321C378 334.255 367.255 345 354 345C340.745 345 330 334.255 330 321C330 307.745 340.745 297 354 297C367.255 297 378 307.745 378 321ZM138 358C151.255 358 162 347.255 162 334C162 320.745 151.255 310 138 310C124.745 310 114 320.745 114 334C114 347.255 124.745 358 138 358ZM112 314C112 327.255 101.255 338 88 338C74.7452 338 64 327.255 64 314C64 300.745 74.7452 290 88 290C101.255 290 112 300.745 112 314ZM206 277C219.255 277 230 266.255 230 253C230 239.745 219.255 229 206 229C192.745 229 182 239.745 182 253C182 266.255 192.745 277 206 277ZM180 233C180 246.255 169.255 257 156 257C142.745 257 132 246.255 132 233C132 219.745 142.745 209 156 209C169.255 209 180 219.745 180 233ZM285 426C298.255 426 309 415.255 309 402C309 388.745 298.255 378 285 378C271.745 378 261 388.745 261 402C261 415.255 271.745 426 285 426ZM359 424C359 437.255 348.255 448 335 448C321.745 448 311 437.255 311 424C311 410.745 321.745 400 335 400C348.255 400 359 410.745 359 424ZM187 380C200.255 380 211 369.255 211 356C211 342.745 200.255 332 187 332C173.745 332 163 342.745 163 356C163 369.255 173.745 380 187 380ZM279 275C279 288.255 268.255 299 255 299C241.745 299 231 288.255 231 275C231 261.745 241.745 251 255 251C268.255 251 279 261.745 279 275ZM275 251C288.255 251 299 240.255 299 227C299 213.745 288.255 203 275 203C261.745 203 251 213.745 251 227C251 240.255 261.745 251 275 251ZM212 413C212 426.255 201.255 437 188 437C174.745 437 164 426.255 164 413C164 399.745 174.745 389 188 389C201.255 389 212 399.745 212 413ZM310 380C323.255 380 334 369.255 334 356C334 342.745 323.255 332 310 332C296.745 332 286 342.745 286 356C286 369.255 296.745 380 310 380ZM384 378C384 391.255 373.255 402 360 402C346.745 402 336 391.255 336 378C336 364.745 346.745 354 360 354C373.255 354 384 364.745 384 378ZM163 312C176.255 312 187 301.255 187 288C187 274.745 176.255 264 163 264C149.745 264 139 274.745 139 288C139 301.255 149.745 312 163 312ZM137 268C137 281.255 126.255 292 113 292C99.7452 292 89 281.255 89 268C89 254.745 99.7452 244 113 244C126.255 244 137 254.745 137 268ZM212 334C225.255 334 236 323.255 236 310C236 296.745 225.255 286 212 286C198.745 286 188 296.745 188 310C188 323.255 198.745 334 212 334ZM261 435C261 448.255 250.255 459 237 459C223.745 459 213 448.255 213 435C213 421.745 223.745 411 237 411C250.255 411 261 421.745 261 435ZM287 481C300.255 481 311 470.255 311 457C311 443.745 300.255 433 287 433C273.745 433 263 443.745 263 457C263 470.255 273.745 481 287 481ZM163 389C163 402.255 152.255 413 139 413C125.745 413 115 402.255 115 389C115 375.745 125.745 365 139 365C152.255 365 163 375.745 163 389ZM169 484C182.255 484 193 473.255 193 460C193 446.745 182.255 436 169 436C155.745 436 145 446.745 145 460C145 473.255 155.745 484 169 484ZM113 369C113 382.255 102.255 393 89 393C75.7452 393 65 382.255 65 369C65 355.745 75.7452 345 89 345C102.255 345 113 355.745 113 369ZM121 461C134.255 461 145 450.255 145 437C145 423.745 134.255 413 121 413C107.745 413 97 423.745 97 437C97 450.255 107.745 461 121 461ZM242 481C242 494.255 231.255 505 218 505C204.745 505 194 494.255 194 481C194 467.745 204.745 457 218 457C231.255 457 242 467.745 242 481ZM261 356C274.255 356 285 345.255 285 332C285 318.745 274.255 308 261 308C247.745 308 237 318.745 237 332C237 345.255 247.745 356 261 356Z"/>
</mask>
<path fill-rule="evenodd" clip-rule="evenodd" d="M391 342.5C391 435.008 316.008 510 223.5 510C130.992 510 56 435.008 56 342.5C56 249.992 130.992 175 223.5 175C316.008 175 391 249.992 391 342.5ZM260 380C260 393.255 249.255 404 236 404C222.745 404 212 393.255 212 380C212 366.745 222.745 356 236 356C249.255 356 260 366.745 260 380ZM304 323C317.255 323 328 312.255 328 299C328 285.745 317.255 275 304 275C290.745 275 280 285.745 280 299C280 312.255 290.745 323 304 323ZM350 251C350 264.255 339.255 275 326 275C312.745 275 302 264.255 302 251C302 237.745 312.745 227 326 227C339.255 227 350 237.745 350 251ZM224 227C237.255 227 248 216.255 248 203C248 189.745 237.255 179 224 179C210.745 179 200 189.745 200 203C200 216.255 210.745 227 224 227ZM378 321C378 334.255 367.255 345 354 345C340.745 345 330 334.255 330 321C330 307.745 340.745 297 354 297C367.255 297 378 307.745 378 321ZM138 358C151.255 358 162 347.255 162 334C162 320.745 151.255 310 138 310C124.745 310 114 320.745 114 334C114 347.255 124.745 358 138 358ZM112 314C112 327.255 101.255 338 88 338C74.7452 338 64 327.255 64 314C64 300.745 74.7452 290 88 290C101.255 290 112 300.745 112 314ZM206 277C219.255 277 230 266.255 230 253C230 239.745 219.255 229 206 229C192.745 229 182 239.745 182 253C182 266.255 192.745 277 206 277ZM180 233C180 246.255 169.255 257 156 257C142.745 257 132 246.255 132 233C132 219.745 142.745 209 156 209C169.255 209 180 219.745 180 233ZM285 426C298.255 426 309 415.255 309 402C309 388.745 298.255 378 285 378C271.745 378 261 388.745 261 402C261 415.255 271.745 426 285 426ZM359 424C359 437.255 348.255 448 335 448C321.745 448 311 437.255 311 424C311 410.745 321.745 400 335 400C348.255 400 359 410.745 359 424ZM187 380C200.255 380 211 369.255 211 356C211 342.745 200.255 332 187 332C173.745 332 163 342.745 163 356C163 369.255 173.745 380 187 380ZM279 275C279 288.255 268.255 299 255 299C241.745 299 231 288.255 231 275C231 261.745 241.745 251 255 251C268.255 251 279 261.745 279 275ZM275 251C288.255 251 299 240.255 299 227C299 213.745 288.255 203 275 203C261.745 203 251 213.745 251 227C251 240.255 261.745 251 275 251ZM212 413C212 426.255 201.255 437 188 437C174.745 437 164 426.255 164 413C164 399.745 174.745 389 188 389C201.255 389 212 399.745 212 413ZM310 380C323.255 380 334 369.255 334 356C334 342.745 323.255 332 310 332C296.745 332 286 342.745 286 356C286 369.255 296.745 380 310 380ZM384 378C384 391.255 373.255 402 360 402C346.745 402 336 391.255 336 378C336 364.745 346.745 354 360 354C373.255 354 384 364.745 384 378ZM163 312C176.255 312 187 301.255 187 288C187 274.745 176.255 264 163 264C149.745 264 139 274.745 139 288C139 301.255 149.745 312 163 312ZM137 268C137 281.255 126.255 292 113 292C99.7452 292 89 281.255 89 268C89 254.745 99.7452 244 113 244C126.255 244 137 254.745 137 268ZM212 334C225.255 334 236 323.255 236 310C236 296.745 225.255 286 212 286C198.745 286 188 296.745 188 310C188 323.255 198.745 334 212 334ZM261 435C261 448.255 250.255 459 237 459C223.745 459 213 448.255 213 435C213 421.745 223.745 411 237 411C250.255 411 261 421.745 261 435ZM287 481C300.255 481 311 470.255 311 457C311 443.745 300.255 433 287 433C273.745 433 263 443.745 263 457C263 470.255 273.745 481 287 481ZM163 389C163 402.255 152.255 413 139 413C125.745 413 115 402.255 115 389C115 375.745 125.745 365 139 365C152.255 365 163 375.745 163 389ZM169 484C182.255 484 193 473.255 193 460C193 446.745 182.255 436 169 436C155.745 436 145 446.745 145 460C145 473.255 155.745 484 169 484ZM113 369C113 382.255 102.255 393 89 393C75.7452 393 65 382.255 65 369C65 355.745 75.7452 345 89 345C102.255 345 113 355.745 113 369ZM121 461C134.255 461 145 450.255 145 437C145 423.745 134.255 413 121 413C107.745 413 97 423.745 97 437C97 450.255 107.745 461 121 461ZM242 481C242 494.255 231.255 505 218 505C204.745 505 194 494.255 194 481C194 467.745 204.745 457 218 457C231.255 457 242 467.745 242 481ZM261 356C274.255 356 285 345.255 285 332C285 318.745 274.255 308 261 308C247.745 308 237 318.745 237 332C237 345.255 247.745 356 261 356Z" fill="white"/>
<path d="M223.5 520C321.531 520 401 440.531 401 342.5H381C381 429.485 310.485 500 223.5 500V520ZM46 342.5C46 440.531 125.469 520 223.5 520V500C136.515 500 66 429.485 66 342.5H46ZM223.5 165C125.469 165 46 244.469 46 342.5H66C66 255.515 136.515 185 223.5 185V165ZM401 342.5C401 244.469 321.531 165 223.5 165V185C310.485 185 381 255.515 381 342.5H401ZM236 414C254.778 414 270 398.778 270 380H250C250 387.732 243.732 394 236 394V414ZM202 380C202 398.778 217.222 414 236 414V394C228.268 394 222 387.732 222 380H202ZM236 346C217.222 346 202 361.222 202 380H222C222 372.268 228.268 366 236 366V346ZM270 380C270 361.222 254.778 346 236 346V366C243.732 366 250 372.268 250 380H270ZM318 299C318 306.732 311.732 313 304 313V333C322.778 333 338 317.778 338 299H318ZM304 285C311.732 285 318 291.268 318 299H338C338 280.222 322.778 265 304 265V285ZM290 299C290 291.268 296.268 285 304 285V265C285.222 265 270 280.222 270 299H290ZM304 313C296.268 313 290 306.732 290 299H270C270 317.778 285.222 333 304 333V313ZM326 285C344.778 285 360 269.778 360 251H340C340 258.732 333.732 265 326 265V285ZM292 251C292 269.778 307.222 285 326 285V265C318.268 265 312 258.732 312 251H292ZM326 217C307.222 217 292 232.222 292 251H312C312 243.268 318.268 237 326 237V217ZM360 251C360 232.222 344.778 217 326 217V237C333.732 237 340 243.268 340 251H360ZM238 203C238 210.732 231.732 217 224 217V237C242.778 237 258 221.778 258 203H238ZM224 189C231.732 189 238 195.268 238 203H258C258 184.222 242.778 169 224 169V189ZM210 203C210 195.268 216.268 189 224 189V169C205.222 169 190 184.222 190 203H210ZM224 217C216.268 217 210 210.732 210 203H190C190 221.778 205.222 237 224 237V217ZM354 355C372.778 355 388 339.778 388 321H368C368 328.732 361.732 335 354 335V355ZM320 321C320 339.778 335.222 355 354 355V335C346.268 335 340 328.732 340 321H320ZM354 287C335.222 287 320 302.222 320 321H340C340 313.268 346.268 307 354 307V287ZM388 321C388 302.222 372.778 287 354 287V307C361.732 307 368 313.268 368 321H388ZM152 334C152 341.732 145.732 348 138 348V368C156.778 368 172 352.778 172 334H152ZM138 320C145.732 320 152 326.268 152 334H172C172 315.222 156.778 300 138 300V320ZM124 334C124 326.268 130.268 320 138 320V300C119.222 300 104 315.222 104 334H124ZM138 348C130.268 348 124 341.732 124 334H104C104 352.778 119.222 368 138 368V348ZM88 348C106.778 348 122 332.778 122 314H102C102 321.732 95.732 328 88 328V348ZM54 314C54 332.778 69.2223 348 88 348V328C80.268 328 74 321.732 74 314H54ZM88 280C69.2223 280 54 295.222 54 314H74C74 306.268 80.268 300 88 300V280ZM122 314C122 295.222 106.778 280 88 280V300C95.732 300 102 306.268 102 314H122ZM220 253C220 260.732 213.732 267 206 267V287C224.778 287 240 271.778 240 253H220ZM206 239C213.732 239 220 245.268 220 253H240C240 234.222 224.778 219 206 219V239ZM192 253C192 245.268 198.268 239 206 239V219C187.222 219 172 234.222 172 253H192ZM206 267C198.268 267 192 260.732 192 253H172C172 271.778 187.222 287 206 287V267ZM156 267C174.778 267 190 251.778 190 233H170C170 240.732 163.732 247 156 247V267ZM122 233C122 251.778 137.222 267 156 267V247C148.268 247 142 240.732 142 233H122ZM156 199C137.222 199 122 214.222 122 233H142C142 225.268 148.268 219 156 219V199ZM190 233C190 214.222 174.778 199 156 199V219C163.732 219 170 225.268 170 233H190ZM299 402C299 409.732 292.732 416 285 416V436C303.778 436 319 420.778 319 402H299ZM285 388C292.732 388 299 394.268 299 402H319C319 383.222 303.778 368 285 368V388ZM271 402C271 394.268 277.268 388 285 388V368C266.222 368 251 383.222 251 402H271ZM285 416C277.268 416 271 409.732 271 402H251C251 420.778 266.222 436 285 436V416ZM335 458C353.778 458 369 442.778 369 424H349C349 431.732 342.732 438 335 438V458ZM301 424C301 442.778 316.222 458 335 458V438C327.268 438 321 431.732 321 424H301ZM335 390C316.222 390 301 405.222 301 424H321C321 416.268 327.268 410 335 410V390ZM369 424C369 405.222 353.778 390 335 390V410C342.732 410 349 416.268 349 424H369ZM201 356C201 363.732 194.732 370 187 370V390C205.778 390 221 374.778 221 356H201ZM187 342C194.732 342 201 348.268 201 356H221C221 337.222 205.778 322 187 322V342ZM173 356C173 348.268 179.268 342 187 342V322C168.222 322 153 337.222 153 356H173ZM187 370C179.268 370 173 363.732 173 356H153C153 374.778 168.222 390 187 390V370ZM255 309C273.778 309 289 293.778 289 275H269C269 282.732 262.732 289 255 289V309ZM221 275C221 293.778 236.222 309 255 309V289C247.268 289 241 282.732 241 275H221ZM255 241C236.222 241 221 256.222 221 275H241C241 267.268 247.268 261 255 261V241ZM289 275C289 256.222 273.778 241 255 241V261C262.732 261 269 267.268 269 275H289ZM289 227C289 234.732 282.732 241 275 241V261C293.778 261 309 245.778 309 227H289ZM275 213C282.732 213 289 219.268 289 227H309C309 208.222 293.778 193 275 193V213ZM261 227C261 219.268 267.268 213 275 213V193C256.222 193 241 208.222 241 227H261ZM275 241C267.268 241 261 234.732 261 227H241C241 245.778 256.222 261 275 261V241ZM188 447C206.778 447 222 431.778 222 413H202C202 420.732 195.732 427 188 427V447ZM154 413C154 431.778 169.222 447 188 447V427C180.268 427 174 420.732 174 413H154ZM188 379C169.222 379 154 394.222 154 413H174C174 405.268 180.268 399 188 399V379ZM222 413C222 394.222 206.778 379 188 379V399C195.732 399 202 405.268 202 413H222ZM324 356C324 363.732 317.732 370 310 370V390C328.778 390 344 374.778 344 356H324ZM310 342C317.732 342 324 348.268 324 356H344C344 337.222 328.778 322 310 322V342ZM296 356C296 348.268 302.268 342 310 342V322C291.222 322 276 337.222 276 356H296ZM310 370C302.268 370 296 363.732 296 356H276C276 374.778 291.222 390 310 390V370ZM360 412C378.778 412 394 396.778 394 378H374C374 385.732 367.732 392 360 392V412ZM326 378C326 396.778 341.222 412 360 412V392C352.268 392 346 385.732 346 378H326ZM360 344C341.222 344 326 359.222 326 378H346C346 370.268 352.268 364 360 364V344ZM394 378C394 359.222 378.778 344 360 344V364C367.732 364 374 370.268 374 378H394ZM177 288C177 295.732 170.732 302 163 302V322C181.778 322 197 306.778 197 288H177ZM163 274C170.732 274 177 280.268 177 288H197C197 269.222 181.778 254 163 254V274ZM149 288C149 280.268 155.268 274 163 274V254C144.222 254 129 269.222 129 288H149ZM163 302C155.268 302 149 295.732 149 288H129C129 306.778 144.222 322 163 322V302ZM113 302C131.778 302 147 286.778 147 268H127C127 275.732 120.732 282 113 282V302ZM79 268C79 286.778 94.2223 302 113 302V282C105.268 282 99 275.732 99 268H79ZM113 234C94.2223 234 79 249.222 79 268H99C99 260.268 105.268 254 113 254V234ZM147 268C147 249.222 131.778 234 113 234V254C120.732 254 127 260.268 127 268H147ZM226 310C226 317.732 219.732 324 212 324V344C230.778 344 246 328.778 246 310H226ZM212 296C219.732 296 226 302.268 226 310H246C246 291.222 230.778 276 212 276V296ZM198 310C198 302.268 204.268 296 212 296V276C193.222 276 178 291.222 178 310H198ZM212 324C204.268 324 198 317.732 198 310H178C178 328.778 193.222 344 212 344V324ZM237 469C255.778 469 271 453.778 271 435H251C251 442.732 244.732 449 237 449V469ZM203 435C203 453.778 218.222 469 237 469V449C229.268 449 223 442.732 223 435H203ZM237 401C218.222 401 203 416.222 203 435H223C223 427.268 229.268 421 237 421V401ZM271 435C271 416.222 255.778 401 237 401V421C244.732 421 251 427.268 251 435H271ZM301 457C301 464.732 294.732 471 287 471V491C305.778 491 321 475.778 321 457H301ZM287 443C294.732 443 301 449.268 301 457H321C321 438.222 305.778 423 287 423V443ZM273 457C273 449.268 279.268 443 287 443V423C268.222 423 253 438.222 253 457H273ZM287 471C279.268 471 273 464.732 273 457H253C253 475.778 268.222 491 287 491V471ZM139 423C157.778 423 173 407.778 173 389H153C153 396.732 146.732 403 139 403V423ZM105 389C105 407.778 120.222 423 139 423V403C131.268 403 125 396.732 125 389H105ZM139 355C120.222 355 105 370.222 105 389H125C125 381.268 131.268 375 139 375V355ZM173 389C173 370.222 157.778 355 139 355V375C146.732 375 153 381.268 153 389H173ZM183 460C183 467.732 176.732 474 169 474V494C187.778 494 203 478.778 203 460H183ZM169 446C176.732 446 183 452.268 183 460H203C203 441.222 187.778 426 169 426V446ZM155 460C155 452.268 161.268 446 169 446V426C150.222 426 135 441.222 135 460H155ZM169 474C161.268 474 155 467.732 155 460H135C135 478.778 150.222 494 169 494V474ZM89 403C107.778 403 123 387.778 123 369H103C103 376.732 96.732 383 89 383V403ZM55 369C55 387.778 70.2223 403 89 403V383C81.268 383 75 376.732 75 369H55ZM89 335C70.2223 335 55 350.222 55 369H75C75 361.268 81.268 355 89 355V335ZM123 369C123 350.222 107.778 335 89 335V355C96.732 355 103 361.268 103 369H123ZM135 437C135 444.732 128.732 451 121 451V471C139.778 471 155 455.778 155 437H135ZM121 423C128.732 423 135 429.268 135 437H155C155 418.222 139.778 403 121 403V423ZM107 437C107 429.268 113.268 423 121 423V403C102.222 403 87 418.222 87 437H107ZM121 451C113.268 451 107 444.732 107 437H87C87 455.778 102.222 471 121 471V451ZM218 515C236.778 515 252 499.778 252 481H232C232 488.732 225.732 495 218 495V515ZM184 481C184 499.778 199.222 515 218 515V495C210.268 495 204 488.732 204 481H184ZM218 447C199.222 447 184 462.222 184 481H204C204 473.268 210.268 467 218 467V447ZM252 481C252 462.222 236.778 447 218 447V467C225.732 467 232 473.268 232 481H252ZM275 332C275 339.732 268.732 346 261 346V366C279.778 366 295 350.778 295 332H275ZM261 318C268.732 318 275 324.268 275 332H295C295 313.222 279.778 298 261 298V318ZM247 332C247 324.268 253.268 318 261 318V298C242.222 298 227 313.222 227 332H247ZM261 346C253.268 346 247 339.732 247 332H227C227 350.778 242.222 366 261 366V346Z" fill="white" mask="url(#path-14-inside-7_137_22)"/>
<mask id="path-16-inside-8_137_22" fill="white">
<path fill-rule="evenodd" clip-rule="evenodd" d="M856 429C856 556.025 753.025 659 626 659C498.975 659 396 556.025 396 429C396 301.975 498.975 199 626 199C753.025 199 856 301.975 856 429ZM666 468C666 481.255 655.255 492 642 492C628.745 492 618 481.255 618 468C618 454.745 628.745 444 642 444C655.255 444 666 454.745 666 468ZM710 411C723.255 411 734 400.255 734 387C734 373.745 723.255 363 710 363C696.745 363 686 373.745 686 387C686 400.255 696.745 411 710 411ZM783 360C783 373.255 772.255 384 759 384C745.745 384 735 373.255 735 360C735 346.745 745.745 336 759 336C772.255 336 783 346.745 783 360ZM734 307C747.255 307 758 296.255 758 283C758 269.745 747.255 259 734 259C720.745 259 710 269.745 710 283C710 296.255 720.745 307 734 307ZM807 310C807 323.255 796.255 334 783 334C769.745 334 759 323.255 759 310C759 296.745 769.745 286 783 286C796.255 286 807 296.745 807 310ZM544 446C557.255 446 568 435.255 568 422C568 408.745 557.255 398 544 398C530.745 398 520 408.745 520 422C520 435.255 530.745 446 544 446ZM636 341C636 354.255 625.255 365 612 365C598.745 365 588 354.255 588 341C588 327.745 598.745 317 612 317C625.255 317 636 327.745 636 341ZM691 514C704.255 514 715 503.255 715 490C715 476.745 704.255 466 691 466C677.745 466 667 476.745 667 490C667 503.255 677.745 514 691 514ZM790 466C790 479.255 779.255 490 766 490C752.745 490 742 479.255 742 466C742 452.745 752.745 442 766 442C779.255 442 790 452.745 790 466ZM814 514C827.255 514 838 503.255 838 490C838 476.745 827.255 466 814 466C800.745 466 790 476.745 790 490C790 503.255 800.745 514 814 514ZM833 437C833 450.255 822.255 461 809 461C795.745 461 785 450.255 785 437C785 423.745 795.745 413 809 413C822.255 413 833 423.745 833 437ZM740 540C753.255 540 764 529.255 764 516C764 502.745 753.255 492 740 492C726.745 492 716 502.745 716 516C716 529.255 726.745 540 740 540ZM812 540C812 553.255 801.255 564 788 564C774.745 564 764 553.255 764 540C764 526.745 774.745 516 788 516C801.255 516 812 526.745 812 540ZM694 569C707.255 569 718 558.255 718 545C718 531.745 707.255 521 694 521C680.745 521 670 531.745 670 545C670 558.255 680.745 569 694 569ZM766 569C766 582.255 755.255 593 742 593C728.745 593 718 582.255 718 569C718 555.745 728.745 545 742 545C755.255 545 766 555.745 766 569ZM646 601C659.255 601 670 590.255 670 577C670 563.745 659.255 553 646 553C632.745 553 622 563.745 622 577C622 590.255 632.745 601 646 601ZM718 601C718 614.255 707.255 625 694 625C680.745 625 670 614.255 670 601C670 587.745 680.745 577 694 577C707.255 577 718 587.745 718 601ZM598 577C611.255 577 622 566.255 622 553C622 539.745 611.255 529 598 529C584.745 529 574 539.745 574 553C574 566.255 584.745 577 598 577ZM653 628C653 641.255 642.255 652 629 652C615.745 652 605 641.255 605 628C605 614.745 615.745 604 629 604C642.255 604 653 614.745 653 628ZM547 553C560.255 553 571 542.255 571 529C571 515.745 560.255 505 547 505C533.745 505 523 515.745 523 529C523 542.255 533.745 553 547 553ZM602 604C602 617.255 591.255 628 578 628C564.745 628 554 617.255 554 604C554 590.745 564.745 580 578 580C591.255 580 602 590.745 602 604ZM495 525C508.255 525 519 514.255 519 501C519 487.745 508.255 477 495 477C481.745 477 471 487.745 471 501C471 514.255 481.745 525 495 525ZM550 576C550 589.255 539.255 600 526 600C512.745 600 502 589.255 502 576C502 562.745 512.745 552 526 552C539.255 552 550 562.745 550 576ZM447 504C460.255 504 471 493.255 471 480C471 466.745 460.255 456 447 456C433.745 456 423 466.745 423 480C423 493.255 433.745 504 447 504ZM499 549C499 562.255 488.255 573 475 573C461.745 573 451 562.255 451 549C451 535.745 461.745 525 475 525C488.255 525 499 535.745 499 549ZM495 470C508.255 470 519 459.255 519 446C519 432.745 508.255 422 495 422C481.745 422 471 432.745 471 446C471 459.255 481.745 470 495 470ZM469 420C469 433.255 458.255 444 445 444C431.745 444 421 433.255 421 420C421 406.745 431.745 396 445 396C458.255 396 469 406.745 469 420ZM495 415C508.255 415 519 404.255 519 391C519 377.745 508.255 367 495 367C481.745 367 471 377.745 471 391C471 404.255 481.745 415 495 415ZM469 365C469 378.255 458.255 389 445 389C431.745 389 421 378.255 421 365C421 351.745 431.745 341 445 341C458.255 341 469 351.745 469 365ZM526 367C539.255 367 550 356.255 550 343C550 329.745 539.255 319 526 319C512.745 319 502 329.745 502 343C502 356.255 512.745 367 526 367ZM500 322C500 335.255 489.255 346 476 346C462.745 346 452 335.255 452 322C452 308.745 462.745 298 476 298C489.255 298 500 308.745 500 322ZM567 332C580.255 332 591 321.255 591 308C591 294.745 580.255 284 567 284C553.745 284 543 294.745 543 308C543 321.255 553.745 332 567 332ZM541 283C541 296.255 530.255 307 517 307C503.745 307 493 296.255 493 283C493 269.745 503.745 259 517 259C530.255 259 541 269.745 541 283ZM616 308C629.255 308 640 297.255 640 284C640 270.745 629.255 260 616 260C602.745 260 592 270.745 592 284C592 297.255 602.745 308 616 308ZM589 251C589 264.255 578.255 275 565 275C551.745 275 541 264.255 541 251C541 237.745 551.745 227 565 227C578.255 227 589 237.745 589 251ZM660 332C673.255 332 684 321.255 684 308C684 294.745 673.255 284 660 284C646.745 284 636 294.745 636 308C636 321.255 646.745 332 660 332ZM653 230C653 243.255 642.255 254 629 254C615.745 254 605 243.255 605 230C605 216.745 615.745 206 629 206C642.255 206 653 216.745 653 230ZM593 468C606.255 468 617 457.255 617 444C617 430.745 606.255 420 593 420C579.745 420 569 430.745 569 444C569 457.255 579.745 468 593 468ZM685 363C685 376.255 674.255 387 661 387C647.745 387 637 376.255 637 363C637 349.745 647.745 339 661 339C674.255 339 685 349.745 685 363ZM710 360C723.255 360 734 349.255 734 336C734 322.745 723.255 312 710 312C696.745 312 686 322.745 686 336C686 349.255 696.745 360 710 360ZM706 254C706 267.255 695.255 278 682 278C668.745 278 658 267.255 658 254C658 240.745 668.745 230 682 230C695.255 230 706 240.745 706 254ZM594 525C607.255 525 618 514.255 618 501C618 487.745 607.255 477 594 477C580.745 477 570 487.745 570 501C570 514.255 580.745 525 594 525ZM740 444C740 457.255 729.255 468 716 468C702.745 468 692 457.255 692 444C692 430.745 702.745 420 716 420C729.255 420 740 430.745 740 444ZM764 435C777.255 435 788 424.255 788 411C788 397.745 777.255 387 764 387C750.745 387 740 397.745 740 411C740 424.255 750.745 435 764 435ZM831 382C831 395.255 820.255 406 807 406C793.745 406 783 395.255 783 382C783 368.745 793.745 358 807 358C820.255 358 831 368.745 831 382ZM569 400C582.255 400 593 389.255 593 376C593 362.745 582.255 352 569 352C555.745 352 545 362.745 545 376C545 389.255 555.745 400 569 400ZM642 398C642 411.255 631.255 422 618 422C604.745 422 594 411.255 594 398C594 384.745 604.745 374 618 374C631.255 374 642 384.745 642 398ZM643 547C656.255 547 667 536.255 667 523C667 509.745 656.255 499 643 499C629.745 499 619 509.745 619 523C619 536.255 629.745 547 643 547ZM569 477C569 490.255 558.255 501 545 501C531.745 501 521 490.255 521 477C521 463.745 531.745 453 545 453C558.255 453 569 463.745 569 477ZM667 444C680.255 444 691 433.255 691 420C691 406.745 680.255 396 667 396C653.745 396 643 406.745 643 420C643 433.255 653.745 444 667 444Z"/>
</mask>
<path fill-rule="evenodd" clip-rule="evenodd" d="M856 429C856 556.025 753.025 659 626 659C498.975 659 396 556.025 396 429C396 301.975 498.975 199 626 199C753.025 199 856 301.975 856 429ZM666 468C666 481.255 655.255 492 642 492C628.745 492 618 481.255 618 468C618 454.745 628.745 444 642 444C655.255 444 666 454.745 666 468ZM710 411C723.255 411 734 400.255 734 387C734 373.745 723.255 363 710 363C696.745 363 686 373.745 686 387C686 400.255 696.745 411 710 411ZM783 360C783 373.255 772.255 384 759 384C745.745 384 735 373.255 735 360C735 346.745 745.745 336 759 336C772.255 336 783 346.745 783 360ZM734 307C747.255 307 758 296.255 758 283C758 269.745 747.255 259 734 259C720.745 259 710 269.745 710 283C710 296.255 720.745 307 734 307ZM807 310C807 323.255 796.255 334 783 334C769.745 334 759 323.255 759 310C759 296.745 769.745 286 783 286C796.255 286 807 296.745 807 310ZM544 446C557.255 446 568 435.255 568 422C568 408.745 557.255 398 544 398C530.745 398 520 408.745 520 422C520 435.255 530.745 446 544 446ZM636 341C636 354.255 625.255 365 612 365C598.745 365 588 354.255 588 341C588 327.745 598.745 317 612 317C625.255 317 636 327.745 636 341ZM691 514C704.255 514 715 503.255 715 490C715 476.745 704.255 466 691 466C677.745 466 667 476.745 667 490C667 503.255 677.745 514 691 514ZM790 466C790 479.255 779.255 490 766 490C752.745 490 742 479.255 742 466C742 452.745 752.745 442 766 442C779.255 442 790 452.745 790 466ZM814 514C827.255 514 838 503.255 838 490C838 476.745 827.255 466 814 466C800.745 466 790 476.745 790 490C790 503.255 800.745 514 814 514ZM833 437C833 450.255 822.255 461 809 461C795.745 461 785 450.255 785 437C785 423.745 795.745 413 809 413C822.255 413 833 423.745 833 437ZM740 540C753.255 540 764 529.255 764 516C764 502.745 753.255 492 740 492C726.745 492 716 502.745 716 516C716 529.255 726.745 540 740 540ZM812 540C812 553.255 801.255 564 788 564C774.745 564 764 553.255 764 540C764 526.745 774.745 516 788 516C801.255 516 812 526.745 812 540ZM694 569C707.255 569 718 558.255 718 545C718 531.745 707.255 521 694 521C680.745 521 670 531.745 670 545C670 558.255 680.745 569 694 569ZM766 569C766 582.255 755.255 593 742 593C728.745 593 718 582.255 718 569C718 555.745 728.745 545 742 545C755.255 545 766 555.745 766 569ZM646 601C659.255 601 670 590.255 670 577C670 563.745 659.255 553 646 553C632.745 553 622 563.745 622 577C622 590.255 632.745 601 646 601ZM718 601C718 614.255 707.255 625 694 625C680.745 625 670 614.255 670 601C670 587.745 680.745 577 694 577C707.255 577 718 587.745 718 601ZM598 577C611.255 577 622 566.255 622 553C622 539.745 611.255 529 598 529C584.745 529 574 539.745 574 553C574 566.255 584.745 577 598 577ZM653 628C653 641.255 642.255 652 629 652C615.745 652 605 641.255 605 628C605 614.745 615.745 604 629 604C642.255 604 653 614.745 653 628ZM547 553C560.255 553 571 542.255 571 529C571 515.745 560.255 505 547 505C533.745 505 523 515.745 523 529C523 542.255 533.745 553 547 553ZM602 604C602 617.255 591.255 628 578 628C564.745 628 554 617.255 554 604C554 590.745 564.745 580 578 580C591.255 580 602 590.745 602 604ZM495 525C508.255 525 519 514.255 519 501C519 487.745 508.255 477 495 477C481.745 477 471 487.745 471 501C471 514.255 481.745 525 495 525ZM550 576C550 589.255 539.255 600 526 600C512.745 600 502 589.255 502 576C502 562.745 512.745 552 526 552C539.255 552 550 562.745 550 576ZM447 504C460.255 504 471 493.255 471 480C471 466.745 460.255 456 447 456C433.745 456 423 466.745 423 480C423 493.255 433.745 504 447 504ZM499 549C499 562.255 488.255 573 475 573C461.745 573 451 562.255 451 549C451 535.745 461.745 525 475 525C488.255 525 499 535.745 499 549ZM495 470C508.255 470 519 459.255 519 446C519 432.745 508.255 422 495 422C481.745 422 471 432.745 471 446C471 459.255 481.745 470 495 470ZM469 420C469 433.255 458.255 444 445 444C431.745 444 421 433.255 421 420C421 406.745 431.745 396 445 396C458.255 396 469 406.745 469 420ZM495 415C508.255 415 519 404.255 519 391C519 377.745 508.255 367 495 367C481.745 367 471 377.745 471 391C471 404.255 481.745 415 495 415ZM469 365C469 378.255 458.255 389 445 389C431.745 389 421 378.255 421 365C421 351.745 431.745 341 445 341C458.255 341 469 351.745 469 365ZM526 367C539.255 367 550 356.255 550 343C550 329.745 539.255 319 526 319C512.745 319 502 329.745 502 343C502 356.255 512.745 367 526 367ZM500 322C500 335.255 489.255 346 476 346C462.745 346 452 335.255 452 322C452 308.745 462.745 298 476 298C489.255 298 500 308.745 500 322ZM567 332C580.255 332 591 321.255 591 308C591 294.745 580.255 284 567 284C553.745 284 543 294.745 543 308C543 321.255 553.745 332 567 332ZM541 283C541 296.255 530.255 307 517 307C503.745 307 493 296.255 493 283C493 269.745 503.745 259 517 259C530.255 259 541 269.745 541 283ZM616 308C629.255 308 640 297.255 640 284C640 270.745 629.255 260 616 260C602.745 260 592 270.745 592 284C592 297.255 602.745 308 616 308ZM589 251C589 264.255 578.255 275 565 275C551.745 275 541 264.255 541 251C541 237.745 551.745 227 565 227C578.255 227 589 237.745 589 251ZM660 332C673.255 332 684 321.255 684 308C684 294.745 673.255 284 660 284C646.745 284 636 294.745 636 308C636 321.255 646.745 332 660 332ZM653 230C653 243.255 642.255 254 629 254C615.745 254 605 243.255 605 230C605 216.745 615.745 206 629 206C642.255 206 653 216.745 653 230ZM593 468C606.255 468 617 457.255 617 444C617 430.745 606.255 420 593 420C579.745 420 569 430.745 569 444C569 457.255 579.745 468 593 468ZM685 363C685 376.255 674.255 387 661 387C647.745 387 637 376.255 637 363C637 349.745 647.745 339 661 339C674.255 339 685 349.745 685 363ZM710 360C723.255 360 734 349.255 734 336C734 322.745 723.255 312 710 312C696.745 312 686 322.745 686 336C686 349.255 696.745 360 710 360ZM706 254C706 267.255 695.255 278 682 278C668.745 278 658 267.255 658 254C658 240.745 668.745 230 682 230C695.255 230 706 240.745 706 254ZM594 525C607.255 525 618 514.255 618 501C618 487.745 607.255 477 594 477C580.745 477 570 487.745 570 501C570 514.255 580.745 525 594 525ZM740 444C740 457.255 729.255 468 716 468C702.745 468 692 457.255 692 444C692 430.745 702.745 420 716 420C729.255 420 740 430.745 740 444ZM764 435C777.255 435 788 424.255 788 411C788 397.745 777.255 387 764 387C750.745 387 740 397.745 740 411C740 424.255 750.745 435 764 435ZM831 382C831 395.255 820.255 406 807 406C793.745 406 783 395.255 783 382C783 368.745 793.745 358 807 358C820.255 358 831 368.745 831 382ZM569 400C582.255 400 593 389.255 593 376C593 362.745 582.255 352 569 352C555.745 352 545 362.745 545 376C545 389.255 555.745 400 569 400ZM642 398C642 411.255 631.255 422 618 422C604.745 422 594 411.255 594 398C594 384.745 604.745 374 618 374C631.255 374 642 384.745 642 398ZM643 547C656.255 547 667 536.255 667 523C667 509.745 656.255 499 643 499C629.745 499 619 509.745 619 523C619 536.255 629.745 547 643 547ZM569 477C569 490.255 558.255 501 545 501C531.745 501 521 490.255 521 477C521 463.745 531.745 453 545 453C558.255 453 569 463.745 569 477ZM667 444C680.255 444 691 433.255 691 420C691 406.745 680.255 396 667 396C653.745 396 643 406.745 643 420C643 433.255 653.745 444 667 444Z" fill="white"/>
<path d="M626 669C758.548 669 866 561.548 866 429H846C846 550.503 747.503 649 626 649V669ZM386 429C386 561.548 493.452 669 626 669V649C504.497 649 406 550.503 406 429H386ZM626 189C493.452 189 386 296.452 386 429H406C406 307.497 504.497 209 626 209V189ZM866 429C866 296.452 758.548 189 626 189V209C747.503 209 846 307.497 846 429H866ZM642 502C660.778 502 676 486.778 676 468H656C656 475.732 649.732 482 642 482V502ZM608 468C608 486.778 623.222 502 642 502V482C634.268 482 628 475.732 628 468H608ZM642 434C623.222 434 608 449.222 608 468H628C628 460.268 634.268 454 642 454V434ZM676 468C676 449.222 660.778 434 642 434V454C649.732 454 656 460.268 656 468H676ZM724 387C724 394.732 717.732 401 710 401V421C728.778 421 744 405.778 744 387H724ZM710 373C717.732 373 724 379.268 724 387H744C744 368.222 728.778 353 710 353V373ZM696 387C696 379.268 702.268 373 710 373V353C691.222 353 676 368.222 676 387H696ZM710 401C702.268 401 696 394.732 696 387H676C676 405.778 691.222 421 710 421V401ZM759 394C777.778 394 793 378.778 793 360H773C773 367.732 766.732 374 759 374V394ZM725 360C725 378.778 740.222 394 759 394V374C751.268 374 745 367.732 745 360H725ZM759 326C740.222 326 725 341.222 725 360H745C745 352.268 751.268 346 759 346V326ZM793 360C793 341.222 777.778 326 759 326V346C766.732 346 773 352.268 773 360H793ZM748 283C748 290.732 741.732 297 734 297V317C752.778 317 768 301.778 768 283H748ZM734 269C741.732 269 748 275.268 748 283H768C768 264.222 752.778 249 734 249V269ZM720 283C720 275.268 726.268 269 734 269V249C715.222 249 700 264.222 700 283H720ZM734 297C726.268 297 720 290.732 720 283H700C700 301.778 715.222 317 734 317V297ZM783 344C801.778 344 817 328.778 817 310H797C797 317.732 790.732 324 783 324V344ZM749 310C749 328.778 764.222 344 783 344V324C775.268 324 769 317.732 769 310H749ZM783 276C764.222 276 749 291.222 749 310H769C769 302.268 775.268 296 783 296V276ZM817 310C817 291.222 801.778 276 783 276V296C790.732 296 797 302.268 797 310H817ZM558 422C558 429.732 551.732 436 544 436V456C562.778 456 578 440.778 578 422H558ZM544 408C551.732 408 558 414.268 558 422H578C578 403.222 562.778 388 544 388V408ZM530 422C530 414.268 536.268 408 544 408V388C525.222 388 510 403.222 510 422H530ZM544 436C536.268 436 530 429.732 530 422H510C510 440.778 525.222 456 544 456V436ZM612 375C630.778 375 646 359.778 646 341H626C626 348.732 619.732 355 612 355V375ZM578 341C578 359.778 593.222 375 612 375V355C604.268 355 598 348.732 598 341H578ZM612 307C593.222 307 578 322.222 578 341H598C598 333.268 604.268 327 612 327V307ZM646 341C646 322.222 630.778 307 612 307V327C619.732 327 626 333.268 626 341H646ZM705 490C705 497.732 698.732 504 691 504V524C709.778 524 725 508.778 725 490H705ZM691 476C698.732 476 705 482.268 705 490H725C725 471.222 709.778 456 691 456V476ZM677 490C677 482.268 683.268 476 691 476V456C672.222 456 657 471.222 657 490H677ZM691 504C683.268 504 677 497.732 677 490H657C657 508.778 672.222 524 691 524V504ZM766 500C784.778 500 800 484.778 800 466H780C780 473.732 773.732 480 766 480V500ZM732 466C732 484.778 747.222 500 766 500V480C758.268 480 752 473.732 752 466H732ZM766 432C747.222 432 732 447.222 732 466H752C752 458.268 758.268 452 766 452V432ZM800 466C800 447.222 784.778 432 766 432V452C773.732 452 780 458.268 780 466H800ZM828 490C828 497.732 821.732 504 814 504V524C832.778 524 848 508.778 848 490H828ZM814 476C821.732 476 828 482.268 828 490H848C848 471.222 832.778 456 814 456V476ZM800 490C800 482.268 806.268 476 814 476V456C795.222 456 780 471.222 780 490H800ZM814 504C806.268 504 800 497.732 800 490H780C780 508.778 795.222 524 814 524V504ZM809 471C827.778 471 843 455.778 843 437H823C823 444.732 816.732 451 809 451V471ZM775 437C775 455.778 790.222 471 809 471V451C801.268 451 795 444.732 795 437H775ZM809 403C790.222 403 775 418.222 775 437H795C795 429.268 801.268 423 809 423V403ZM843 437C843 418.222 827.778 403 809 403V423C816.732 423 823 429.268 823 437H843ZM754 516C754 523.732 747.732 530 740 530V550C758.778 550 774 534.778 774 516H754ZM740 502C747.732 502 754 508.268 754 516H774C774 497.222 758.778 482 740 482V502ZM726 516C726 508.268 732.268 502 740 502V482C721.222 482 706 497.222 706 516H726ZM740 530C732.268 530 726 523.732 726 516H706C706 534.778 721.222 550 740 550V530ZM788 574C806.778 574 822 558.778 822 540H802C802 547.732 795.732 554 788 554V574ZM754 540C754 558.778 769.222 574 788 574V554C780.268 554 774 547.732 774 540H754ZM788 506C769.222 506 754 521.222 754 540H774C774 532.268 780.268 526 788 526V506ZM822 540C822 521.222 806.778 506 788 506V526C795.732 526 802 532.268 802 540H822ZM708 545C708 552.732 701.732 559 694 559V579C712.778 579 728 563.778 728 545H708ZM694 531C701.732 531 708 537.268 708 545H728C728 526.222 712.778 511 694 511V531ZM680 545C680 537.268 686.268 531 694 531V511C675.222 511 660 526.222 660 545H680ZM694 559C686.268 559 680 552.732 680 545H660C660 563.778 675.222 579 694 579V559ZM742 603C760.778 603 776 587.778 776 569H756C756 576.732 749.732 583 742 583V603ZM708 569C708 587.778 723.222 603 742 603V583C734.268 583 728 576.732 728 569H708ZM742 535C723.222 535 708 550.222 708 569H728C728 561.268 734.268 555 742 555V535ZM776 569C776 550.222 760.778 535 742 535V555C749.732 555 756 561.268 756 569H776ZM660 577C660 584.732 653.732 591 646 591V611C664.778 611 680 595.778 680 577H660ZM646 563C653.732 563 660 569.268 660 577H680C680 558.222 664.778 543 646 543V563ZM632 577C632 569.268 638.268 563 646 563V543C627.222 543 612 558.222 612 577H632ZM646 591C638.268 591 632 584.732 632 577H612C612 595.778 627.222 611 646 611V591ZM694 635C712.778 635 728 619.778 728 601H708C708 608.732 701.732 615 694 615V635ZM660 601C660 619.778 675.222 635 694 635V615C686.268 615 680 608.732 680 601H660ZM694 567C675.222 567 660 582.222 660 601H680C680 593.268 686.268 587 694 587V567ZM728 601C728 582.222 712.778 567 694 567V587C701.732 587 708 593.268 708 601H728ZM612 553C612 560.732 605.732 567 598 567V587C616.778 587 632 571.778 632 553H612ZM598 539C605.732 539 612 545.268 612 553H632C632 534.222 616.778 519 598 519V539ZM584 553C584 545.268 590.268 539 598 539V519C579.222 519 564 534.222 564 553H584ZM598 567C590.268 567 584 560.732 584 553H564C564 571.778 579.222 587 598 587V567ZM629 662C647.778 662 663 646.778 663 628H643C643 635.732 636.732 642 629 642V662ZM595 628C595 646.778 610.222 662 629 662V642C621.268 642 615 635.732 615 628H595ZM629 594C610.222 594 595 609.222 595 628H615C615 620.268 621.268 614 629 614V594ZM663 628C663 609.222 647.778 594 629 594V614C636.732 614 643 620.268 643 628H663ZM561 529C561 536.732 554.732 543 547 543V563C565.778 563 581 547.778 581 529H561ZM547 515C554.732 515 561 521.268 561 529H581C581 510.222 565.778 495 547 495V515ZM533 529C533 521.268 539.268 515 547 515V495C528.222 495 513 510.222 513 529H533ZM547 543C539.268 543 533 536.732 533 529H513C513 547.778 528.222 563 547 563V543ZM578 638C596.778 638 612 622.778 612 604H592C592 611.732 585.732 618 578 618V638ZM544 604C544 622.778 559.222 638 578 638V618C570.268 618 564 611.732 564 604H544ZM578 570C559.222 570 544 585.222 544 604H564C564 596.268 570.268 590 578 590V570ZM612 604C612 585.222 596.778 570 578 570V590C585.732 590 592 596.268 592 604H612ZM509 501C509 508.732 502.732 515 495 515V535C513.778 535 529 519.778 529 501H509ZM495 487C502.732 487 509 493.268 509 501H529C529 482.222 513.778 467 495 467V487ZM481 501C481 493.268 487.268 487 495 487V467C476.222 467 461 482.222 461 501H481ZM495 515C487.268 515 481 508.732 481 501H461C461 519.778 476.222 535 495 535V515ZM526 610C544.778 610 560 594.778 560 576H540C540 583.732 533.732 590 526 590V610ZM492 576C492 594.778 507.222 610 526 610V590C518.268 590 512 583.732 512 576H492ZM526 542C507.222 542 492 557.222 492 576H512C512 568.268 518.268 562 526 562V542ZM560 576C560 557.222 544.778 542 526 542V562C533.732 562 540 568.268 540 576H560ZM461 480C461 487.732 454.732 494 447 494V514C465.778 514 481 498.778 481 480H461ZM447 466C454.732 466 461 472.268 461 480H481C481 461.222 465.778 446 447 446V466ZM433 480C433 472.268 439.268 466 447 466V446C428.222 446 413 461.222 413 480H433ZM447 494C439.268 494 433 487.732 433 480H413C413 498.778 428.222 514 447 514V494ZM475 583C493.778 583 509 567.778 509 549H489C489 556.732 482.732 563 475 563V583ZM441 549C441 567.778 456.222 583 475 583V563C467.268 563 461 556.732 461 549H441ZM475 515C456.222 515 441 530.222 441 549H461C461 541.268 467.268 535 475 535V515ZM509 549C509 530.222 493.778 515 475 515V535C482.732 535 489 541.268 489 549H509ZM509 446C509 453.732 502.732 460 495 460V480C513.778 480 529 464.778 529 446H509ZM495 432C502.732 432 509 438.268 509 446H529C529 427.222 513.778 412 495 412V432ZM481 446C481 438.268 487.268 432 495 432V412C476.222 412 461 427.222 461 446H481ZM495 460C487.268 460 481 453.732 481 446H461C461 464.778 476.222 480 495 480V460ZM445 454C463.778 454 479 438.778 479 420H459C459 427.732 452.732 434 445 434V454ZM411 420C411 438.778 426.222 454 445 454V434C437.268 434 431 427.732 431 420H411ZM445 386C426.222 386 411 401.222 411 420H431C431 412.268 437.268 406 445 406V386ZM479 420C479 401.222 463.778 386 445 386V406C452.732 406 459 412.268 459 420H479ZM509 391C509 398.732 502.732 405 495 405V425C513.778 425 529 409.778 529 391H509ZM495 377C502.732 377 509 383.268 509 391H529C529 372.222 513.778 357 495 357V377ZM481 391C481 383.268 487.268 377 495 377V357C476.222 357 461 372.222 461 391H481ZM495 405C487.268 405 481 398.732 481 391H461C461 409.778 476.222 425 495 425V405ZM445 399C463.778 399 479 383.778 479 365H459C459 372.732 452.732 379 445 379V399ZM411 365C411 383.778 426.222 399 445 399V379C437.268 379 431 372.732 431 365H411ZM445 331C426.222 331 411 346.222 411 365H431C431 357.268 437.268 351 445 351V331ZM479 365C479 346.222 463.778 331 445 331V351C452.732 351 459 357.268 459 365H479ZM540 343C540 350.732 533.732 357 526 357V377C544.778 377 560 361.778 560 343H540ZM526 329C533.732 329 540 335.268 540 343H560C560 324.222 544.778 309 526 309V329ZM512 343C512 335.268 518.268 329 526 329V309C507.222 309 492 324.222 492 343H512ZM526 357C518.268 357 512 350.732 512 343H492C492 361.778 507.222 377 526 377V357ZM476 356C494.778 356 510 340.778 510 322H490C490 329.732 483.732 336 476 336V356ZM442 322C442 340.778 457.222 356 476 356V336C468.268 336 462 329.732 462 322H442ZM476 288C457.222 288 442 303.222 442 322H462C462 314.268 468.268 308 476 308V288ZM510 322C510 303.222 494.778 288 476 288V308C483.732 308 490 314.268 490 322H510ZM581 308C581 315.732 574.732 322 567 322V342C585.778 342 601 326.778 601 308H581ZM567 294C574.732 294 581 300.268 581 308H601C601 289.222 585.778 274 567 274V294ZM553 308C553 300.268 559.268 294 567 294V274C548.222 274 533 289.222 533 308H553ZM567 322C559.268 322 553 315.732 553 308H533C533 326.778 548.222 342 567 342V322ZM517 317C535.778 317 551 301.778 551 283H531C531 290.732 524.732 297 517 297V317ZM483 283C483 301.778 498.222 317 517 317V297C509.268 297 503 290.732 503 283H483ZM517 249C498.222 249 483 264.222 483 283H503C503 275.268 509.268 269 517 269V249ZM551 283C551 264.222 535.778 249 517 249V269C524.732 269 531 275.268 531 283H551ZM630 284C630 291.732 623.732 298 616 298V318C634.778 318 650 302.778 650 284H630ZM616 270C623.732 270 630 276.268 630 284H650C650 265.222 634.778 250 616 250V270ZM602 284C602 276.268 608.268 270 616 270V250C597.222 250 582 265.222 582 284H602ZM616 298C608.268 298 602 291.732 602 284H582C582 302.778 597.222 318 616 318V298ZM565 285C583.778 285 599 269.778 599 251H579C579 258.732 572.732 265 565 265V285ZM531 251C531 269.778 546.222 285 565 285V265C557.268 265 551 258.732 551 251H531ZM565 217C546.222 217 531 232.222 531 251H551C551 243.268 557.268 237 565 237V217ZM599 251C599 232.222 583.778 217 565 217V237C572.732 237 579 243.268 579 251H599ZM674 308C674 315.732 667.732 322 660 322V342C678.778 342 694 326.778 694 308H674ZM660 294C667.732 294 674 300.268 674 308H694C694 289.222 678.778 274 660 274V294ZM646 308C646 300.268 652.268 294 660 294V274C641.222 274 626 289.222 626 308H646ZM660 322C652.268 322 646 315.732 646 308H626C626 326.778 641.222 342 660 342V322ZM629 264C647.778 264 663 248.778 663 230H643C643 237.732 636.732 244 629 244V264ZM595 230C595 248.778 610.222 264 629 264V244C621.268 244 615 237.732 615 230H595ZM629 196C610.222 196 595 211.222 595 230H615C615 222.268 621.268 216 629 216V196ZM663 230C663 211.222 647.778 196 629 196V216C636.732 216 643 222.268 643 230H663ZM607 444C607 451.732 600.732 458 593 458V478C611.778 478 627 462.778 627 444H607ZM593 430C600.732 430 607 436.268 607 444H627C627 425.222 611.778 410 593 410V430ZM579 444C579 436.268 585.268 430 593 430V410C574.222 410 559 425.222 559 444H579ZM593 458C585.268 458 579 451.732 579 444H559C559 462.778 574.222 478 593 478V458ZM661 397C679.778 397 695 381.778 695 363H675C675 370.732 668.732 377 661 377V397ZM627 363C627 381.778 642.222 397 661 397V377C653.268 377 647 370.732 647 363H627ZM661 329C642.222 329 627 344.222 627 363H647C647 355.268 653.268 349 661 349V329ZM695 363C695 344.222 679.778 329 661 329V349C668.732 349 675 355.268 675 363H695ZM724 336C724 343.732 717.732 350 710 350V370C728.778 370 744 354.778 744 336H724ZM710 322C717.732 322 724 328.268 724 336H744C744 317.222 728.778 302 710 302V322ZM696 336C696 328.268 702.268 322 710 322V302C691.222 302 676 317.222 676 336H696ZM710 350C702.268 350 696 343.732 696 336H676C676 354.778 691.222 370 710 370V350ZM682 288C700.778 288 716 272.778 716 254H696C696 261.732 689.732 268 682 268V288ZM648 254C648 272.778 663.222 288 682 288V268C674.268 268 668 261.732 668 254H648ZM682 220C663.222 220 648 235.222 648 254H668C668 246.268 674.268 240 682 240V220ZM716 254C716 235.222 700.778 220 682 220V240C689.732 240 696 246.268 696 254H716ZM608 501C608 508.732 601.732 515 594 515V535C612.778 535 628 519.778 628 501H608ZM594 487C601.732 487 608 493.268 608 501H628C628 482.222 612.778 467 594 467V487ZM580 501C580 493.268 586.268 487 594 487V467C575.222 467 560 482.222 560 501H580ZM594 515C586.268 515 580 508.732 580 501H560C560 519.778 575.222 535 594 535V515ZM716 478C734.778 478 750 462.778 750 444H730C730 451.732 723.732 458 716 458V478ZM682 444C682 462.778 697.222 478 716 478V458C708.268 458 702 451.732 702 444H682ZM716 410C697.222 410 682 425.222 682 444H702C702 436.268 708.268 430 716 430V410ZM750 444C750 425.222 734.778 410 716 410V430C723.732 430 730 436.268 730 444H750ZM778 411C778 418.732 771.732 425 764 425V445C782.778 445 798 429.778 798 411H778ZM764 397C771.732 397 778 403.268 778 411H798C798 392.222 782.778 377 764 377V397ZM750 411C750 403.268 756.268 397 764 397V377C745.222 377 730 392.222 730 411H750ZM764 425C756.268 425 750 418.732 750 411H730C730 429.778 745.222 445 764 445V425ZM807 416C825.778 416 841 400.778 841 382H821C821 389.732 814.732 396 807 396V416ZM773 382C773 400.778 788.222 416 807 416V396C799.268 396 793 389.732 793 382H773ZM807 348C788.222 348 773 363.222 773 382H793C793 374.268 799.268 368 807 368V348ZM841 382C841 363.222 825.778 348 807 348V368C814.732 368 821 374.268 821 382H841ZM583 376C583 383.732 576.732 390 569 390V410C587.778 410 603 394.778 603 376H583ZM569 362C576.732 362 583 368.268 583 376H603C603 357.222 587.778 342 569 342V362ZM555 376C555 368.268 561.268 362 569 362V342C550.222 342 535 357.222 535 376H555ZM569 390C561.268 390 555 383.732 555 376H535C535 394.778 550.222 410 569 410V390ZM618 432C636.778 432 652 416.778 652 398H632C632 405.732 625.732 412 618 412V432ZM584 398C584 416.778 599.222 432 618 432V412C610.268 412 604 405.732 604 398H584ZM618 364C599.222 364 584 379.222 584 398H604C604 390.268 610.268 384 618 384V364ZM652 398C652 379.222 636.778 364 618 364V384C625.732 384 632 390.268 632 398H652ZM657 523C657 530.732 650.732 537 643 537V557C661.778 557 677 541.778 677 523H657ZM643 509C650.732 509 657 515.268 657 523H677C677 504.222 661.778 489 643 489V509ZM629 523C629 515.268 635.268 509 643 509V489C624.222 489 609 504.222 609 523H629ZM643 537C635.268 537 629 530.732 629 523H609C609 541.778 624.222 557 643 557V537ZM545 511C563.778 511 579 495.778 579 477H559C559 484.732 552.732 491 545 491V511ZM511 477C511 495.778 526.222 511 545 511V491C537.268 491 531 484.732 531 477H511ZM545 443C526.222 443 511 458.222 511 477H531C531 469.268 537.268 463 545 463V443ZM579 477C579 458.222 563.778 443 545 443V463C552.732 463 559 469.268 559 477H579ZM681 420C681 427.732 674.732 434 667 434V454C685.778 454 701 438.778 701 420H681ZM667 406C674.732 406 681 412.268 681 420H701C701 401.222 685.778 386 667 386V406ZM653 420C653 412.268 659.268 406 667 406V386C648.222 386 633 401.222 633 420H653ZM667 434C659.268 434 653 427.732 653 420H633C633 438.778 648.222 454 667 454V434Z" fill="white" mask="url(#path-16-inside-8_137_22)"/>
<mask id="path-18-inside-9_137_22" fill="white">
<path fill-rule="evenodd" clip-rule="evenodd" d="M519 837C569.81 837 611 795.81 611 745C611 694.19 569.81 653 519 653C468.19 653 427 694.19 427 745C427 795.81 468.19 837 519 837ZM468 745C481.255 745 492 734.255 492 721C492 707.745 481.255 697 468 697C454.745 697 444 707.745 444 721C444 734.255 454.745 745 468 745ZM539 689C539 702.255 528.255 713 515 713C501.745 713 491 702.255 491 689C491 675.745 501.745 665 515 665C528.255 665 539 675.745 539 689ZM520 770C533.255 770 544 759.255 544 746C544 732.745 533.255 722 520 722C506.745 722 496 732.745 496 746C496 759.255 506.745 770 520 770ZM496 777C496 790.255 485.255 801 472 801C458.745 801 448 790.255 448 777C448 763.745 458.745 753 472 753C485.255 753 496 763.745 496 777ZM526 825C539.255 825 550 814.255 550 801C550 787.745 539.255 777 526 777C512.745 777 502 787.745 502 801C502 814.255 512.745 825 526 825ZM598 768C598 781.255 587.255 792 574 792C560.745 792 550 781.255 550 768C550 754.745 560.745 744 574 744C587.255 744 598 754.745 598 768ZM567 736C580.255 736 591 725.255 591 712C591 698.745 580.255 688 567 688C553.745 688 543 698.745 543 712C543 725.255 553.745 736 567 736Z"/>
</mask>
<path fill-rule="evenodd" clip-rule="evenodd" d="M519 837C569.81 837 611 795.81 611 745C611 694.19 569.81 653 519 653C468.19 653 427 694.19 427 745C427 795.81 468.19 837 519 837ZM468 745C481.255 745 492 734.255 492 721C492 707.745 481.255 697 468 697C454.745 697 444 707.745 444 721C444 734.255 454.745 745 468 745ZM539 689C539 702.255 528.255 713 515 713C501.745 713 491 702.255 491 689C491 675.745 501.745 665 515 665C528.255 665 539 675.745 539 689ZM520 770C533.255 770 544 759.255 544 746C544 732.745 533.255 722 520 722C506.745 722 496 732.745 496 746C496 759.255 506.745 770 520 770ZM496 777C496 790.255 485.255 801 472 801C458.745 801 448 790.255 448 777C448 763.745 458.745 753 472 753C485.255 753 496 763.745 496 777ZM526 825C539.255 825 550 814.255 550 801C550 787.745 539.255 777 526 777C512.745 777 502 787.745 502 801C502 814.255 512.745 825 526 825ZM598 768C598 781.255 587.255 792 574 792C560.745 792 550 781.255 550 768C550 754.745 560.745 744 574 744C587.255 744 598 754.745 598 768ZM567 736C580.255 736 591 725.255 591 712C591 698.745 580.255 688 567 688C553.745 688 543 698.745 543 712C543 725.255 553.745 736 567 736Z" fill="white"/>
<path d="M601 745C601 790.287 564.287 827 519 827V847C575.333 847 621 801.333 621 745H601ZM519 663C564.287 663 601 699.713 601 745H621C621 688.667 575.333 643 519 643V663ZM437 745C437 699.713 473.713 663 519 663V643C462.667 643 417 688.667 417 745H437ZM519 827C473.713 827 437 790.287 437 745H417C417 801.333 462.667 847 519 847V827ZM482 721C482 728.732 475.732 735 468 735V755C486.778 755 502 739.778 502 721H482ZM468 707C475.732 707 482 713.268 482 721H502C502 702.222 486.778 687 468 687V707ZM454 721C454 713.268 460.268 707 468 707V687C449.222 687 434 702.222 434 721H454ZM468 735C460.268 735 454 728.732 454 721H434C434 739.778 449.222 755 468 755V735ZM515 723C533.778 723 549 707.778 549 689H529C529 696.732 522.732 703 515 703V723ZM481 689C481 707.778 496.222 723 515 723V703C507.268 703 501 696.732 501 689H481ZM515 655C496.222 655 481 670.222 481 689H501C501 681.268 507.268 675 515 675V655ZM549 689C549 670.222 533.778 655 515 655V675C522.732 675 529 681.268 529 689H549ZM534 746C534 753.732 527.732 760 520 760V780C538.778 780 554 764.778 554 746H534ZM520 732C527.732 732 534 738.268 534 746H554C554 727.222 538.778 712 520 712V732ZM506 746C506 738.268 512.268 732 520 732V712C501.222 712 486 727.222 486 746H506ZM520 760C512.268 760 506 753.732 506 746H486C486 764.778 501.222 780 520 780V760ZM472 811C490.778 811 506 795.778 506 777H486C486 784.732 479.732 791 472 791V811ZM438 777C438 795.778 453.222 811 472 811V791C464.268 791 458 784.732 458 777H438ZM472 743C453.222 743 438 758.222 438 777H458C458 769.268 464.268 763 472 763V743ZM506 777C506 758.222 490.778 743 472 743V763C479.732 763 486 769.268 486 777H506ZM540 801C540 808.732 533.732 815 526 815V835C544.778 835 560 819.778 560 801H540ZM526 787C533.732 787 540 793.268 540 801H560C560 782.222 544.778 767 526 767V787ZM512 801C512 793.268 518.268 787 526 787V767C507.222 767 492 782.222 492 801H512ZM526 815C518.268 815 512 808.732 512 801H492C492 819.778 507.222 835 526 835V815ZM574 802C592.778 802 608 786.778 608 768H588C588 775.732 581.732 782 574 782V802ZM540 768C540 786.778 555.222 802 574 802V782C566.268 782 560 775.732 560 768H540ZM574 734C555.222 734 540 749.222 540 768H560C560 760.268 566.268 754 574 754V734ZM608 768C608 749.222 592.778 734 574 734V754C581.732 754 588 760.268 588 768H608ZM581 712C581 719.732 574.732 726 567 726V746C585.778 746 601 730.778 601 712H581ZM567 698C574.732 698 581 704.268 581 712H601C601 693.222 585.778 678 567 678V698ZM553 712C553 704.268 559.268 698 567 698V678C548.222 678 533 693.222 533 712H553ZM567 726C559.268 726 553 719.732 553 712H533C533 730.778 548.222 746 567 746V726Z" fill="white" mask="url(#path-18-inside-9_137_22)"/>
<mask id="path-20-inside-10_137_22" fill="white">
<path fill-rule="evenodd" clip-rule="evenodd" d="M426 251C476.81 251 518 209.81 518 159C518 108.19 476.81 67 426 67C375.19 67 334 108.19 334 159C334 209.81 375.19 251 426 251ZM375 159C388.255 159 399 148.255 399 135C399 121.745 388.255 111 375 111C361.745 111 351 121.745 351 135C351 148.255 361.745 159 375 159ZM446 103C446 116.255 435.255 127 422 127C408.745 127 398 116.255 398 103C398 89.7452 408.745 79 422 79C435.255 79 446 89.7452 446 103ZM427 184C440.255 184 451 173.255 451 160C451 146.745 440.255 136 427 136C413.745 136 403 146.745 403 160C403 173.255 413.745 184 427 184ZM403 191C403 204.255 392.255 215 379 215C365.745 215 355 204.255 355 191C355 177.745 365.745 167 379 167C392.255 167 403 177.745 403 191ZM433 239C446.255 239 457 228.255 457 215C457 201.745 446.255 191 433 191C419.745 191 409 201.745 409 215C409 228.255 419.745 239 433 239ZM505 182C505 195.255 494.255 206 481 206C467.745 206 457 195.255 457 182C457 168.745 467.745 158 481 158C494.255 158 505 168.745 505 182ZM474 150C487.255 150 498 139.255 498 126C498 112.745 487.255 102 474 102C460.745 102 450 112.745 450 126C450 139.255 460.745 150 474 150Z"/>
</mask>
<path fill-rule="evenodd" clip-rule="evenodd" d="M426 251C476.81 251 518 209.81 518 159C518 108.19 476.81 67 426 67C375.19 67 334 108.19 334 159C334 209.81 375.19 251 426 251ZM375 159C388.255 159 399 148.255 399 135C399 121.745 388.255 111 375 111C361.745 111 351 121.745 351 135C351 148.255 361.745 159 375 159ZM446 103C446 116.255 435.255 127 422 127C408.745 127 398 116.255 398 103C398 89.7452 408.745 79 422 79C435.255 79 446 89.7452 446 103ZM427 184C440.255 184 451 173.255 451 160C451 146.745 440.255 136 427 136C413.745 136 403 146.745 403 160C403 173.255 413.745 184 427 184ZM403 191C403 204.255 392.255 215 379 215C365.745 215 355 204.255 355 191C355 177.745 365.745 167 379 167C392.255 167 403 177.745 403 191ZM433 239C446.255 239 457 228.255 457 215C457 201.745 446.255 191 433 191C419.745 191 409 201.745 409 215C409 228.255 419.745 239 433 239ZM505 182C505 195.255 494.255 206 481 206C467.745 206 457 195.255 457 182C457 168.745 467.745 158 481 158C494.255 158 505 168.745 505 182ZM474 150C487.255 150 498 139.255 498 126C498 112.745 487.255 102 474 102C460.745 102 450 112.745 450 126C450 139.255 460.745 150 474 150Z" fill="white"/>
<path d="M508 159C508 204.287 471.287 241 426 241V261C482.333 261 528 215.333 528 159H508ZM426 77C471.287 77 508 113.713 508 159H528C528 102.667 482.333 57 426 57V77ZM344 159C344 113.713 380.713 77 426 77V57C369.667 57 324 102.667 324 159H344ZM426 241C380.713 241 344 204.287 344 159H324C324 215.333 369.667 261 426 261V241ZM389 135C389 142.732 382.732 149 375 149V169C393.778 169 409 153.778 409 135H389ZM375 121C382.732 121 389 127.268 389 135H409C409 116.222 393.778 101 375 101V121ZM361 135C361 127.268 367.268 121 375 121V101C356.222 101 341 116.222 341 135H361ZM375 149C367.268 149 361 142.732 361 135H341C341 153.778 356.222 169 375 169V149ZM422 137C440.778 137 456 121.778 456 103H436C436 110.732 429.732 117 422 117V137ZM388 103C388 121.778 403.222 137 422 137V117C414.268 117 408 110.732 408 103H388ZM422 69C403.222 69 388 84.2223 388 103H408C408 95.268 414.268 89 422 89V69ZM456 103C456 84.2223 440.778 69 422 69V89C429.732 89 436 95.268 436 103H456ZM441 160C441 167.732 434.732 174 427 174V194C445.778 194 461 178.778 461 160H441ZM427 146C434.732 146 441 152.268 441 160H461C461 141.222 445.778 126 427 126V146ZM413 160C413 152.268 419.268 146 427 146V126C408.222 126 393 141.222 393 160H413ZM427 174C419.268 174 413 167.732 413 160H393C393 178.778 408.222 194 427 194V174ZM379 225C397.778 225 413 209.778 413 191H393C393 198.732 386.732 205 379 205V225ZM345 191C345 209.778 360.222 225 379 225V205C371.268 205 365 198.732 365 191H345ZM379 157C360.222 157 345 172.222 345 191H365C365 183.268 371.268 177 379 177V157ZM413 191C413 172.222 397.778 157 379 157V177C386.732 177 393 183.268 393 191H413ZM447 215C447 222.732 440.732 229 433 229V249C451.778 249 467 233.778 467 215H447ZM433 201C440.732 201 447 207.268 447 215H467C467 196.222 451.778 181 433 181V201ZM419 215C419 207.268 425.268 201 433 201V181C414.222 181 399 196.222 399 215H419ZM433 229C425.268 229 419 222.732 419 215H399C399 233.778 414.222 249 433 249V229ZM481 216C499.778 216 515 200.778 515 182H495C495 189.732 488.732 196 481 196V216ZM447 182C447 200.778 462.222 216 481 216V196C473.268 196 467 189.732 467 182H447ZM481 148C462.222 148 447 163.222 447 182H467C467 174.268 473.268 168 481 168V148ZM515 182C515 163.222 499.778 148 481 148V168C488.732 168 495 174.268 495 182H515ZM488 126C488 133.732 481.732 140 474 140V160C492.778 160 508 144.778 508 126H488ZM474 112C481.732 112 488 118.268 488 126H508C508 107.222 492.778 92 474 92V112ZM460 126C460 118.268 466.268 112 474 112V92C455.222 92 440 107.222 440 126H460ZM474 140C466.268 140 460 133.732 460 126H440C440 144.778 455.222 160 474 160V140Z" fill="white" mask="url(#path-20-inside-10_137_22)"/>
</g>
</svg>
