<svg width="556" height="550" viewBox="0 0 556 550" fill="none" xmlns="http://www.w3.org/2000/svg">
<g filter="url(#filter0_d_618_2)">
<path d="M156.155 317.577H173.619C177.185 317.577 179.911 318.336 181.795 319.854C184.184 321.575 185.413 324.358 185.48 328.204C185.48 331.41 184.454 334.109 182.401 336.302C180.315 338.663 177.185 339.878 173.013 339.945H156.155V317.577ZM145 381.393H156.155V349.864H170.388L185.581 381.393H198.855L181.795 348.65C191.15 345.04 195.894 338.225 196.029 328.204C195.827 321.389 193.387 316.143 188.71 312.466C184.841 309.227 179.844 307.607 173.72 307.607H145V381.393Z" fill="#F9F9F9"/>
<path d="M207.133 381.393H217.682V350.117C217.682 346.44 218.675 343.64 220.66 341.717C222.612 339.76 225.102 338.781 228.13 338.781C231.159 338.781 233.632 339.76 235.55 341.717C237.502 343.64 238.477 346.44 238.477 350.117V381.393H249.026V346.474C248.858 340.468 246.991 335.914 243.424 332.81C239.823 329.74 235.853 328.204 231.512 328.204C225.893 328.204 221.35 330.279 217.884 334.429H217.682V328.862H207.133V381.393Z" fill="#F9F9F9"/>
<path d="M263.613 381.393H288.598C294.116 381.393 298.777 380.178 302.579 377.749C306.415 375.489 309.41 372.621 311.563 369.146C312.371 367.83 313.061 366.565 313.633 365.35C314.171 364.102 314.575 362.685 314.844 361.099C315.416 357.962 315.702 352.428 315.702 344.5C315.702 337.044 315.517 331.798 315.147 328.761C314.676 325.725 313.549 322.823 311.765 320.057C306.785 311.825 299.315 307.675 289.355 307.607H263.613V381.393ZM274.768 318.184H288.093C293.746 318.049 298.12 320.124 301.216 324.409C302.73 326.13 303.689 328.373 304.093 331.14C304.396 333.906 304.547 338.495 304.547 344.905C304.547 351.484 304.396 355.971 304.093 358.366C303.757 360.796 302.966 362.803 301.721 364.389C298.894 368.673 294.352 370.816 288.093 370.816H274.768V318.184Z" fill="#F9F9F9"/>
<path d="M339.829 354.976L350.479 322.739H350.68L361.33 354.976H339.829ZM370.214 381.393H381.974L355.223 307.607H345.885L319.134 381.393H330.945L336.598 364.895H364.51L370.214 381.393Z" fill="#F9F9F9"/>
<path d="M385.457 344.5C385.457 352.935 385.709 358.636 386.214 361.605C386.483 363.191 386.82 364.507 387.223 365.553C387.661 366.565 388.149 367.628 388.687 368.741C390.471 372.148 393.331 375.151 397.268 377.749C401.137 380.448 405.966 381.865 411.754 382C417.609 381.865 422.488 380.448 426.391 377.749C430.261 375.151 433.054 372.148 434.77 368.741C436.015 366.953 436.873 364.574 437.344 361.605C437.781 358.636 438 352.935 438 344.5C438 335.931 437.781 330.195 437.344 327.294C436.873 324.392 436.015 322.047 434.77 320.259C433.054 316.852 430.261 313.815 426.391 311.15C422.488 308.451 417.609 307.067 411.754 307C405.966 307.067 401.137 308.451 397.268 311.15C393.331 313.815 390.471 316.852 388.687 320.259C387.577 322.047 386.752 324.392 386.214 327.294C385.709 330.195 385.457 335.931 385.457 344.5ZM396.662 344.5C396.662 337.246 396.931 332.304 397.47 329.672C397.941 327.175 398.9 325.134 400.347 323.549C401.524 322.03 403.072 320.765 404.99 319.753C406.875 318.775 409.129 318.252 411.754 318.184C414.412 318.252 416.717 318.775 418.669 319.753C420.519 320.765 422 322.03 423.11 323.549C424.557 325.134 425.55 327.175 426.088 329.672C426.593 332.304 426.845 337.246 426.845 344.5C426.845 351.754 426.593 356.663 426.088 359.227C425.55 361.791 424.557 363.866 423.11 365.451C422 366.97 420.519 368.201 418.669 369.146C416.717 370.259 414.412 370.816 411.754 370.816C409.129 370.816 406.875 370.259 404.99 369.146C403.072 368.201 401.524 366.97 400.347 365.451C398.9 363.866 397.941 361.791 397.47 359.227C396.931 356.663 396.662 351.754 396.662 344.5Z" fill="#F9F9F9"/>
</g>
<g filter="url(#filter1_d_618_2)">
<path fill-rule="evenodd" clip-rule="evenodd" d="M16 275C16 421.355 134.645 540 281 540C427.355 540 546 421.355 546 275C546 128.645 427.355 10 281 10C134.645 10 16 128.645 16 275ZM45 267.5C45 401.981 154.019 511 288.5 511C422.981 511 532 401.981 532 267.5C532 133.019 422.981 24 288.5 24C154.019 24 45 133.019 45 267.5Z" fill="#F9F9F9"/>
</g>
<circle opacity="0.7" cx="32" cy="258" r="32" fill="white"/>
<circle opacity="0.8" cx="131" cy="192" r="36" fill="white"/>
<circle opacity="0.9" cx="244" cy="140" r="48" fill="white"/>
<circle opacity="0.9" cx="474" cy="251" r="32" fill="white"/>
<circle opacity="0.8" cx="523" cy="357" r="24" fill="white"/>
<circle cx="392" cy="151" r="56" fill="white"/>
<defs>
<filter id="filter0_d_618_2" x="135" y="297" width="313" height="95" filterUnits="userSpaceOnUse" color-interpolation-filters="sRGB">
<feFlood flood-opacity="0" result="BackgroundImageFix"/>
<feColorMatrix in="SourceAlpha" type="matrix" values="0 0 0 0 0 0 0 0 0 0 0 0 0 0 0 0 0 0 127 0" result="hardAlpha"/>
<feOffset/>
<feGaussianBlur stdDeviation="5"/>
<feComposite in2="hardAlpha" operator="out"/>
<feColorMatrix type="matrix" values="0 0 0 0 0.883425 0 0 0 0 0.841667 0 0 0 0 1 0 0 0 1 0"/>
<feBlend mode="normal" in2="BackgroundImageFix" result="effect1_dropShadow_618_2"/>
<feBlend mode="normal" in="SourceGraphic" in2="effect1_dropShadow_618_2" result="shape"/>
</filter>
<filter id="filter1_d_618_2" x="6" y="0" width="550" height="550" filterUnits="userSpaceOnUse" color-interpolation-filters="sRGB">
<feFlood flood-opacity="0" result="BackgroundImageFix"/>
<feColorMatrix in="SourceAlpha" type="matrix" values="0 0 0 0 0 0 0 0 0 0 0 0 0 0 0 0 0 0 127 0" result="hardAlpha"/>
<feOffset/>
<feGaussianBlur stdDeviation="5"/>
<feComposite in2="hardAlpha" operator="out"/>
<feColorMatrix type="matrix" values="0 0 0 0 0.883425 0 0 0 0 0.841667 0 0 0 0 1 0 0 0 1 0"/>
<feBlend mode="normal" in2="BackgroundImageFix" result="effect1_dropShadow_618_2"/>
<feBlend mode="normal" in="SourceGraphic" in2="effect1_dropShadow_618_2" result="shape"/>
</filter>
</defs>
</svg>
