<svg width="738" height="189" viewBox="0 0 738 189" fill="none" xmlns="http://www.w3.org/2000/svg">
<path d="M28.1855 26.9121H72.1113C81.0827 26.9121 87.9382 28.8164 92.6777 32.625C98.6868 36.9414 101.776 43.9238 101.945 53.5723C101.945 61.6126 99.3639 68.3835 94.2012 73.8848C88.9538 79.8092 81.0827 82.8561 70.5879 83.0254H28.1855V26.9121ZM0.128906 187H28.1855V107.908H63.9863L102.199 187H135.588L92.6777 104.861C116.206 95.8053 128.14 78.709 128.479 53.5723C127.971 36.4759 121.835 23.3151 110.07 14.0898C100.337 5.96484 87.7689 1.90234 72.3652 1.90234H0.128906V187ZM156.408 187H182.941V108.543C182.941 99.3177 185.438 92.293 190.432 87.4688C195.34 82.5599 201.604 80.1055 209.221 80.1055C216.838 80.1055 223.059 82.5599 227.883 87.4688C232.792 92.293 235.246 99.3177 235.246 108.543V187H261.779V99.4023C261.356 84.3372 256.659 72.9115 247.688 65.125C238.632 57.4232 228.645 53.5723 217.727 53.5723C203.592 53.5723 192.167 58.7773 183.449 69.1875H182.941V55.2227H156.408V187ZM298.469 187H361.311C375.191 187 386.913 183.953 396.477 177.859C406.125 172.189 413.658 164.995 419.074 156.277C421.105 152.977 422.84 149.803 424.279 146.756C425.633 143.624 426.649 140.07 427.326 136.092C428.765 128.221 429.484 114.34 429.484 94.4512C429.484 75.7467 429.019 62.5859 428.088 54.9688C426.903 47.3516 424.068 40.0729 419.582 33.1328C407.056 12.4818 388.267 2.07161 363.215 1.90234H298.469V187ZM326.525 28.4355H360.041C374.26 28.097 385.262 33.3021 393.049 44.0508C396.857 48.3672 399.27 53.9954 400.285 60.9355C401.047 67.8757 401.428 79.3861 401.428 95.4668C401.428 111.971 401.047 123.227 400.285 129.236C399.439 135.33 397.45 140.366 394.318 144.344C387.209 155.092 375.783 160.467 360.041 160.467H326.525V28.4355ZM490.168 120.73L516.955 39.8613H517.463L544.25 120.73H490.168ZM566.594 187H596.174L528.889 1.90234H505.402L438.117 187H467.824L482.043 145.613H552.248L566.594 187ZM604.934 94.4512C604.934 115.61 605.568 129.913 606.838 137.361C607.515 141.339 608.361 144.64 609.377 147.264C610.477 149.803 611.704 152.469 613.059 155.262C617.544 163.81 624.738 171.342 634.641 177.859C644.374 184.63 656.519 188.185 671.076 188.523C685.803 188.185 698.075 184.63 707.893 177.859C717.626 171.342 724.65 163.81 728.967 155.262C732.098 150.776 734.257 144.809 735.441 137.361C736.542 129.913 737.092 115.61 737.092 94.4512C737.092 72.9538 736.542 58.5658 735.441 51.2871C734.257 44.0085 732.098 38.1263 728.967 33.6406C724.65 25.0924 717.626 17.4753 707.893 10.7891C698.075 4.01823 685.803 0.548177 671.076 0.378906C656.519 0.548177 644.374 4.01823 634.641 10.7891C624.738 17.4753 617.544 25.0924 613.059 33.6406C610.266 38.1263 608.192 44.0085 606.838 51.2871C605.568 58.5658 604.934 72.9538 604.934 94.4512ZM633.117 94.4512C633.117 76.2546 633.794 63.8555 635.148 57.2539C636.333 50.9909 638.745 45.8704 642.385 41.8926C645.347 38.084 649.24 34.9102 654.064 32.3711C658.804 29.9167 664.475 28.6048 671.076 28.4355C677.762 28.6048 683.56 29.9167 688.469 32.3711C693.124 34.9102 696.848 38.084 699.641 41.8926C703.28 45.8704 705.777 50.9909 707.131 57.2539C708.4 63.8555 709.035 76.2546 709.035 94.4512C709.035 112.648 708.4 124.962 707.131 131.395C705.777 137.827 703.28 143.032 699.641 147.01C696.848 150.818 693.124 153.908 688.469 156.277C683.56 159.07 677.762 160.467 671.076 160.467C664.475 160.467 658.804 159.07 654.064 156.277C649.24 153.908 645.347 150.818 642.385 147.01C638.745 143.032 636.333 137.827 635.148 131.395C633.794 124.962 633.117 112.648 633.117 94.4512Z" fill="#F9F9F9"/>
</svg>
